<svg width="560" height="207" viewBox="0 0 560 207" fill="none" xmlns="http://www.w3.org/2000/svg">

<g id="top_opening_PC" clip-path="url(#clip0_0_1)">

<g id="Shih TingFang">
<path id="Vector" d="M472.531 124.358L472.436 122.692C472.349 122.363 472.339 121.802 472.27 121.538L472.301 120.613L472.351 118.977L472.53 117.307L472.66 116.496L472.707 116.412C472.69 116.347 472.749 116.048 472.795 115.965C472.979 114.575 473.316 112.721 473.628 111.296C473.675 111.212 473.658 111.147 473.64 111.081L473.807 109.625L474.23 108.099L474.302 107.586L474.735 106.622L475.287 105.061L476.555 101.26L478.273 97.3372L478.778 95.8598L479.066 94.8646L479.546 93.817L479.98 92.8526L480.478 91.8707L481.38 90.0736L481.585 89.8063C481.614 89.6572 481.772 89.4732 481.801 89.3241L482.147 88.8069L482.709 87.8076L483.423 86.3436L484.705 84.1608L484.893 83.8277L485.373 82.7801L486.433 80.7989L487.042 79.7163L487.575 78.866L488.218 77.915L488.517 77.4811L488.827 76.8324L489.693 75.6798L491.01 73.6287L491.478 72.7959C492.607 71.0779 493.673 69.3774 494.679 67.975L495.083 67.1597L495.702 66.6384L496.065 66.1871C496.901 65.1836 497.702 64.0485 498.539 63.0451L498.995 62.4271L499.579 61.7743L500.218 60.5426L501.691 59.0836C502.889 57.6288 504.293 55.9066 505.556 54.4343L506.012 53.8164L509.093 50.3679L509.455 49.9166L509.754 49.4827L510.531 48.7773L510.578 48.6941L511.128 47.9096L511.666 47.34L511.999 47.0377L512.588 46.6655L513.161 46.2275L513.959 44.0356L514.183 43.0579L514.271 42.6106L514.995 39.8749L515.302 38.1693L515.579 36.6128L515.668 36.1656L515.798 35.3544L515.819 33.8678L515.276 34.1568L514.131 35.0328L513.991 35.2827L513.547 35.6857L512.851 36.4394L511.6 37.6968C511.506 37.8634 511.238 38.1482 511.238 38.1482L509.484 40.1068L509.309 40.2251L509.022 40.4441L508.625 40.7638L507.52 42.0521L506.842 42.8716L505.095 44.3347L504.382 45.0225L503.955 45.4914L503.827 45.5263L502.756 46.9462L501.792 47.9846L501.476 48.3527L501.336 48.6026L500.576 49.3737L500.225 49.6102L498.982 50.3721L498.853 50.4071C497.644 51.3006 496.652 51.7119 495.672 51.9084C495.287 52.0133 494.576 51.925 493.988 51.521L493.394 50.8364L493.256 50.31L493.228 49.6829L493.407 48.0123L493.518 47.9115L493.764 47.2803C493.858 47.1137 493.969 47.013 494.444 45.6847L494.883 45.001L495.743 43.5677L496.101 42.8357L496.621 42.2003L497.043 41.4508L497.452 40.9162L497.886 39.9518L498.564 39.1324L498.816 38.7818L499.114 38.3479L499.857 37.511L500.143 37.292L500.821 36.4726L501.546 35.5698L501.827 35.0702L503.107 33.6636L503.236 33.6287L503.33 33.4621L504.072 32.6252L504.119 32.5419L505.352 31.2187L505.779 30.7498L507.725 28.7387C509.169 27.4288 511.247 26.4396 512.145 26.1948C512.21 26.1773 512.291 26.2257 512.355 26.2082C512.629 26.204 512.758 26.1691 513.568 26.3715L514.173 26.8413L514.452 27.1178C514.633 27.2802 514.981 27.8199 515.138 28.412C515.294 29.0042 515.45 29.5963 515.391 29.8945L515.384 30.39L516.277 29.8645L517.269 29.4532L517.783 29.3133L518.395 29.2876L519.129 29.7224L519.302 30.3803L519.451 31.468L519.117 32.5464L519.011 32.9279L518.91 33.5899L518.499 34.9008C518.393 35.2822 518.164 35.9792 518.011 36.4439C517.928 37.1718 517.675 38.2986 517.574 38.9607L517.484 40.1841L517.312 41.3592L517.113 41.9071L517.029 42.635L519.045 40.8871L519.677 40.1509L520.027 39.9144L521.224 39.2358L522.924 37.8559C523.701 37.1506 524.274 36.7126 524.816 36.4236L525.132 36.0556L525.641 35.635L527.415 34.799C527.415 34.799 527.479 34.7816 527.719 34.6458L528.419 34.1728L529.027 33.8664L529.535 33.4459L530.3 32.9554L530.779 32.6839L532.186 32.0186L533.977 31.2484L534.775 31.6657L535.048 32.4378L534.626 33.1873L534.258 33.358L533.873 33.4629C533.441 33.6511 533.044 33.9708 532.676 34.1415L532.262 34.3955L531.573 34.6536L529.594 35.7569L529.039 36.2607L528.303 36.6021L527.76 36.8911C527.328 37.0793 526.931 37.399 526.563 37.5697L526.324 37.7055L524.77 39.1161L523.385 40.1279L522.497 40.934L521.493 41.5602C520.617 42.1514 519.81 43.0058 518.337 44.4648L517.624 45.1527L516.975 45.823L516.672 45.9762L515.468 47.1504L515.069 48.2464L514.705 49.4739L514.288 50.5041L514.247 50.868L513.49 52.696L511.236 59.0219C510.943 59.7364 510.719 60.7141 510.426 61.4287L509.453 63.7388L509.148 64.6682C508.726 65.4177 508.761 65.5493 508.638 65.8649L508.256 67.0267L507.411 69.3019C506.825 70.7309 506.127 72.2608 505.558 73.7556L504.526 76.3639L504.403 76.6796L503.933 78.2885L501.693 83.6234L500.707 86.1484L497.94 92.6141C497.371 94.109 496.738 95.6214 496.088 97.0679L495.22 98.9966C495.237 99.0624 495.225 99.2773 495.225 99.2773L493.215 103.915C492.826 105.572 492.227 107.216 491.525 108.465L490.734 110.162C490.441 110.876 489.972 111.709 489.551 112.459C489.176 113.125 488.772 113.94 488.496 114.721L487.774 116.68L487.545 117.377L487.07 118.705C486.777 119.42 486.496 119.92 486.244 120.27C485.992 120.621 485.706 120.84 485.529 121.734L485.167 122.186L484.218 124.066L483.017 126.297L482.561 126.915C481.631 128.085 480.83 129.22 479.458 130.017L478.196 130.713L476.097 130.58L475.381 130.211C474.682 129.908 474.235 129.254 473.572 128.306C473.572 128.306 473.555 128.24 473.421 127.994C473.137 127.437 472.876 126.45 472.785 125.841C472.68 125.446 472.635 124.753 472.531 124.358ZM507.274 62.7809L508.565 59.3265L509.181 57.7483C509.193 57.5335 509.304 57.4327 509.316 57.2179L510.127 54.8111L510.338 54.0482L511.728 50.7079L510.652 51.8471L509.974 52.6666L508.787 53.9065L506.466 56.5839L505.677 57.5041L504.034 59.3619L503.292 60.1989L500.771 63.4242L500.268 64.1254C498.051 67.1974 495.851 70.3353 493.797 73.504L493.686 73.6048L493.317 74.5517L492.668 75.222C491.07 77.7728 489.361 80.4244 487.927 83.0718L487.557 84.0187L487.084 84.5708L486.568 85.4868L486.463 85.8683L485.876 87.2973L484.939 88.9629L484.688 89.3135L484.153 90.9399L482.741 93.9338L481.09 97.0634L480.321 99.1062C479.606 100.57 479.032 101.784 478.803 102.482L478.099 104.507C477.882 104.989 477.776 105.37 477.577 105.918C477.547 106.068 477.535 106.282 477.441 106.449C477.382 106.747 477.023 108.255 476.864 109.216L476.48 111.153C475.861 114.284 475.259 117.48 474.925 120.392C474.995 120.655 474.97 121.085 475.04 121.348L475.137 122.238L475.01 124.106C475.142 125.128 475.39 126.33 475.744 127.15C476.181 127.243 477.777 125.468 478.028 125.117L479.237 124.224L479.753 123.308L481.097 121.884C482.355 120.131 483.847 117.961 484.82 115.651C484.99 115.252 485.552 114.253 486.161 113.17C487.332 111.089 488.989 108.24 491.119 102.229L492.743 98.4726C492.96 97.9904 493.288 97.4075 493.487 96.8595L495.2 92.6556C495.687 91.1124 496.461 89.3502 497.07 88.2676C497.627 86.9876 498.324 85.4578 498.799 84.1295L498.952 83.6648L499.726 81.9026L501.232 78.7422L501.707 77.4139L501.83 77.0983L502.476 75.371L502.963 73.8279L503.227 73.2624L503.21 73.1966L503.648 72.5129L504.382 70.3385L504.523 70.0886C504.951 68.8436 505.38 67.5986 505.826 66.4194L505.978 65.9547L506.301 65.0911L506.419 64.4948L506.917 63.5129L507.274 62.7809ZM511.014 33.9074L511.078 33.89L511.236 33.7059L511.085 33.3944L510.993 32.7848L511.094 32.1227L511.2 31.7413L511.347 30.9959L511.781 30.0316L511.963 29.4178L512.163 28.8698C511.538 29.1105 510.79 29.6667 509.996 30.3063L509.616 30.6918L509.189 31.1607L508.558 31.8968L508.148 32.4315L507.64 32.852L506.875 33.3425L506.431 33.7455C506.081 33.982 505.829 34.3326 505.578 34.6832C504.724 35.6209 503.806 36.5761 502.923 37.6628L502.438 38.4298L501.9 38.9994L501.555 39.5166L500.608 40.6208L499.537 42.0407L498.548 43.5088L497.658 45.0911L497.412 45.7224L497.148 46.2878L496.456 48.0983C496.397 48.3965 496.286 48.4972 496.227 48.7954C496.198 48.9444 496.203 49.2251 496.22 49.2909L496.097 49.6065C496.097 49.6065 496.161 49.589 496.208 49.5058C496.512 49.3525 496.943 49.1644 497.101 48.9803L497.212 48.8796L497.943 48.2575L498.796 47.3198L499.193 47.0001L499.591 46.6803L500.333 45.8434L501.122 44.9232L501.502 44.5376L501.946 44.1345L502.8 43.1969L503.303 42.4957L503.934 41.7595L505.151 40.3705L506.729 38.5301L507.893 36.9436L508.478 36.2908L508.794 35.9227L509.442 35.2523L510.57 34.3105L510.821 33.9599L511.014 33.9074Z" fill="#FBCFB9"/>
<path id="Vector_2" d="M465.349 53.8927L465.536 53.5596C465.536 53.5596 465.583 53.4763 465.565 53.4105L465.807 52.4986L466.048 51.5867L466.476 50.3417L467.293 47.4393L467.476 46.8256L467.599 46.51L468.012 44.4229L468.607 41.7222C468.649 41.3582 468.68 40.433 468.664 39.591C468.636 38.9639 468.451 38.5208 468.364 38.1918C468.225 37.6655 468.139 37.3365 468.163 36.9068C468.199 36.2622 468.878 35.4428 469.584 35.2504C471.253 34.7958 472.172 35.6737 472.156 37.4409C472.142 38.432 471.948 39.2606 471.771 40.1551L471.263 43.1848L470.881 44.3466L470.751 45.1577L470.603 45.9031L470.017 47.3321L470.01 47.8277L469.729 48.3273C469.482 48.9586 469.194 49.9538 469.012 50.5675L468.384 52.3606C468.343 52.7245 468.324 53.4349 468.247 53.6672L467.942 54.5966L468.053 54.4959L468.679 53.479L469.932 51.4454L470.055 51.1298L470.114 50.8316L470.95 49.8282L471.137 49.495L471.909 48.5091L472.067 48.325L473.441 46.7519L473.68 46.6162L474.551 45.7443C474.726 45.6261 474.867 45.3762 475.042 45.258C475.504 44.9207 476.473 44.1629 476.94 44.1064L477.197 44.0364L478.626 43.7176L479.698 44.1307L480.501 44.8287L480.989 45.8947L481.145 46.4869L481.254 47.1623L481.334 47.9868L481.391 48.4648L481.564 49.1228L481.613 50.8725C481.665 51.0699 481.635 51.219 481.687 51.4164L481.954 51.9077L482.105 52.2192C482.222 52.3991 482.454 52.7589 482.536 52.8072L482.686 53.1187L483.065 53.5093C483.146 53.5576 483.082 53.5751 483.146 53.5576L483.793 53.6635C484.581 53.5195 485.398 53.2264 486.437 52.7317L487.453 51.8907L487.885 51.7025C488.125 51.5668 488.458 51.2645 488.633 51.1462L489.129 50.9406L489.988 50.2836L491.705 48.9695L491.898 48.917L492.885 48.2251L494.789 46.5779L495.468 45.7585L495.771 45.6052L496.993 44.4969L497.355 44.0455L497.747 43.4451L498.238 42.9588L499.81 41.6139L501.645 39.7035L501.961 39.3355L502.656 38.5818L502.943 38.3628L503.621 37.5434L504.327 37.351L504.799 37.5751L505.078 37.8516L505.14 38.6103L504.62 39.2457L503.673 40.35C503.059 41.1519 502.521 41.7215 501.966 42.2253L501.194 43.2113L500.621 43.6493L499.832 44.5695L499.166 45.1741C498.739 45.643 498.12 46.1642 497.343 46.8696L496.472 47.7415L494.029 49.9582L493.901 49.9932C493.696 50.2605 493.363 50.5628 493.223 50.8126L492.463 51.5838L491.634 52.0917C491.394 52.2275 491.143 52.5781 490.921 52.7796L490.413 53.2001L489.741 53.524L489.006 53.8654L488.574 54.0536L488.352 54.2551L488.112 54.3909L487.937 54.5091C487.826 54.6099 487.587 54.7456 487.202 54.8505L486.659 55.1394L486.069 55.5117L485.38 55.7698L484.593 55.9138L484.242 56.1503L483.583 56.2593C482.877 56.4517 482.166 56.3633 481.519 56.2575L481.455 56.275L481.163 56.2133C480.435 56.0592 479.73 55.4754 479.33 54.7383C479.179 54.4268 479.075 54.032 478.953 53.5715L478.745 52.7819L478.794 51.9225L478.815 50.4359L478.85 47.9583C478.815 47.8267 478.81 47.546 478.775 47.4144C478.666 46.739 478.399 46.2476 477.979 46.2209C477.786 46.2734 477.483 46.4266 477.308 46.5449C477.308 46.5449 477.278 46.6939 477.103 46.8122L476.723 47.1978L476.168 47.7016L475.66 48.1221L474.934 49.0248L474.648 49.2438L474.18 50.0766L473.694 50.8436L473.063 51.5797C472.875 51.9128 472.518 52.6449 472.313 52.9122L471.84 53.4643L471.413 53.9332L471.272 54.183L470.599 55.2831L470.488 55.3838L470.061 55.8527L469.81 56.2033L469.669 56.4531L469.095 57.6673L468.481 58.4693L467.655 60.0341L466.267 62.5982L465.986 63.0979L464.992 64.2854L464.432 64.5085C463.61 64.521 463.197 63.9988 462.848 63.4591C462.645 62.9502 462.484 62.0774 463.041 60.7974L463.3 59.9513L464.162 57.7419L464.356 56.9132L464.726 55.9664L464.785 55.6682L465.349 53.8927Z" fill="#FBCFB9"/>
<path id="Vector_3" d="M453.173 58.5491L453.971 56.3572L454.294 55.4936L454.651 54.7616L454.716 54.7441L455.167 53.8455L455.29 53.5299L455.226 53.5474L454.507 53.9546L452.901 55.1678L452.294 55.4743L450.616 57.2006L450.19 57.6694L449.792 57.9892L449.413 58.3747L448.127 59.5006L446.719 60.9421L446.321 61.2619L445.305 62.1029L445.258 62.1862L444.498 62.9573L444.259 63.0931C443.926 63.3954 443.627 63.8292 443.294 64.1315L442.978 64.4996L442.458 65.135L442.108 65.3715C442.061 65.4548 441.71 65.6913 441.646 65.7087C441.266 66.0943 440.886 66.4799 440.524 66.9312L439.478 67.9214L438.9 68.0787L438.217 68.6175L437.75 68.6741C437.656 68.8406 437.511 68.8098 437.224 69.0288C437.113 69.1296 436.99 69.4452 436.99 69.4452L435.828 70.2555L435.396 70.4436L434.426 71.2014L434.058 71.3721L433.592 71.4287C432.343 71.91 431.247 71.9266 430.584 70.9788C430.02 70.1451 430.029 68.8734 430.183 67.6325L430.262 66.6239L430.525 66.0585C430.525 66.0585 430.572 65.9752 430.555 65.9094L430.86 64.98L431.136 64.1997L431.57 63.2353L432.132 62.236L432.302 61.8371L432.758 61.2192L433.291 60.3689L435.532 56.8671L436.24 55.8986L436.568 55.3156L437.164 54.4479L437.275 54.3471L437.702 53.8783L438.674 52.3443L439.522 51.126L439.867 50.6088L440.691 49.8202L440.738 49.7369L441.246 49.3164L441.421 49.1981C441.597 49.0799 441.737 48.8301 442.327 48.4578L444.325 46.6441L444.834 46.2236L445.184 45.9871C445.552 45.8164 445.821 45.5316 446.189 45.3609L446.393 45.0936L447.018 44.8529L447.368 44.6164L447.783 44.3625L448.745 44.1002L450.21 43.9129C450.291 43.9613 450.501 43.9746 450.565 43.9571L451.427 44.3569L451.665 44.9974L451.693 45.6245C451.639 46.2033 451.052 47.6324 449.67 47.8679C449.541 47.9029 449.366 48.0212 449.238 48.0561L446.735 48.738L446.303 48.9262L445.952 49.1627L445.187 49.6531L444.183 50.2793L442.927 51.2561L441.501 52.6318L441.232 52.9166L440.554 53.7361L438.238 56.6941L438.097 56.9439L437.693 57.7592L437.272 58.5087L436.892 58.8943L436.5 59.4947L436.406 59.6612L435.903 60.3624L435.938 60.494L435.504 61.4584L434.925 62.3919L434.942 62.4577L434.678 63.0232L434.508 63.4221L434.432 63.6544C434.449 63.7202 434.42 63.8693 434.42 63.8693L434.139 64.369L433.969 64.7679L433.523 65.9471L433.363 66.9073L433.275 67.3546L433.058 67.8367L432.935 68.1524L432.905 68.3014L433.027 68.762C433.441 68.508 433.628 68.1749 434.043 67.9209L434.586 67.632L435.462 67.0408L435.894 66.8526L437.863 65.1879L438.132 64.9031L438.623 64.4168L439.388 63.9263L439.721 63.624C440.182 63.2868 440.2 63.3526 441.117 62.3974L441.48 61.9461L441.971 61.4597L442.111 61.2099L442.479 61.0392L443.145 60.4346L443.589 60.0316L443.969 59.646L445.459 58.2528L445.822 57.8015L447.505 56.3558L447.744 56.2201L448.696 55.3965L449.31 54.5946L450.199 53.7885L450.45 53.4379L450.877 52.969L451.128 52.6185L451.76 51.8823L452.567 51.0279L454.435 50.0253L455.333 49.7805L456.074 49.7198L456.82 49.9397L456.902 49.988C457.257 50.0322 457.712 50.1905 458.27 50.7435L458.374 51.1383L458.362 51.3531L458.209 51.8178L458.254 52.5107L457.781 53.0629L457.593 53.396L457.241 54.4087L456.849 55.0091L455.918 56.9553L455.841 57.1877L455.442 58.2836L455.354 58.7308L455.312 59.0948C455.3 59.3096 455.172 59.3446 455.189 59.4104C455.381 59.3579 455.492 59.2572 455.749 59.1872L456.374 58.9466L456.63 58.8767L457.413 58.452L458.084 58.1281L458.435 57.8916L459.217 57.4669L461.29 56.197L461.576 55.978L462.119 55.6891L462.82 55.2161L463.328 54.7956L463.568 54.6598L463.772 54.3925L465.863 53.1884L466.388 52.8337L466.529 52.5839L469.431 50.806L469.974 50.5171L471.153 49.7726C471.218 49.7551 471.603 49.6502 471.684 49.6986C471.894 49.7119 472.297 49.6728 472.361 49.6553L472.656 50.7738L472.17 51.5408L471.464 51.7331L470.57 52.2586L469.904 52.8631L469.519 52.968L468.69 53.476L468.34 53.7125L466.99 54.8558L466.038 55.6794L464.858 56.4238L463.585 57.3348L463.234 57.5713L462.995 57.7071L462.585 58.2417L462.06 58.5964L461.709 58.8329L461.283 59.3018L461.061 59.5033L459.63 60.5983L459.185 61.0014L457.626 62.1314L456.989 62.5869C456.878 62.6877 456.674 62.955 456.609 62.9725L455.716 63.4979L454.882 63.7252L454.287 63.8167L453.931 63.7726L453.447 63.7634L452.696 63.2628L452.523 62.6049C452.372 62.2934 452.203 61.9161 452.262 61.618L452.393 60.8068L452.358 60.6752L452.727 59.7283L452.833 59.3469L453.173 58.5491Z" fill="#FBCFB9"/>
<path id="Vector_4" d="M364.517 72.0518L366.899 70.9094C368.481 70.1258 369.473 69.7145 370.529 69.2857L373.489 67.9859L378.462 65.7143L381.217 64.6819C383.761 63.6361 386.499 62.5378 389.125 61.5403L389.189 61.5228C389.283 61.3562 389.359 61.1239 389.418 60.8257L389.881 59.7123L390.303 58.9628L390.924 57.6653L392.388 54.8688L393.103 53.4048L393.601 52.423L395.41 49.1093L395.913 48.4081L396.313 47.3122L397.168 45.5983L398.28 43.8145L398.677 43.4947L399.133 42.8768L401.616 38.4631L402.891 36.7759L403.67 35.2944L404.319 34.624L404.553 34.2076L405.552 33.3008L406.289 32.1832L406.822 31.3329L407.138 30.9648L407.611 30.4127L408.021 29.8781L411.155 25.8508L412.524 23.9971L414.278 22.0384L414.67 21.438L415.301 20.7019L416.715 19.541L418.23 17.7181C418.844 16.9162 420.911 15.3656 421.262 15.1291L422.103 14.4063C422.103 14.4063 422.278 14.2881 422.325 14.2048L422.787 13.8675L423.774 13.1755L424.534 12.4044L424.901 12.2337C425.491 11.8615 426.046 11.3577 426.636 10.9855L427.465 10.4775L427.401 10.495C428.516 9.76801 430.123 8.55473 432.159 7.92945L432.609 7.80707C432.801 7.75461 432.976 7.63636 433.105 7.60139L434.581 7.19926C435.438 7.31843 435.193 7.1735 435.257 7.15601C435.386 7.12104 435.707 7.03362 435.917 7.04697C436.062 7.07779 436.529 7.0212 436.657 6.98623L437.141 6.99543L437.998 7.11459L438.435 7.20707L439.088 7.59354C439.233 7.62437 439.297 7.60689 439.362 7.58941L440.036 8.32233L440.187 8.63382L440.402 8.92782L440.704 9.55079L441.251 10.3187L441.634 10.99C442.034 11.7271 442.47 12.5957 442.473 13.6526C442.501 14.2797 442.324 15.1741 441.384 15.7828C441.016 15.9535 440.549 16.0101 440.095 15.8518C439.769 15.6586 439.262 15.3029 439.047 15.0089C438.815 14.6491 438.56 13.9429 438.352 13.1534C438.334 13.0876 438.329 12.8069 438.295 12.6753C438.324 12.5263 438.289 12.3947 438.19 12.2806C438.138 12.0832 437.941 11.855 437.825 11.6751L437.609 11.3811C437.459 11.0696 437.342 10.8897 437.261 10.8414C436.789 10.6173 436.06 10.4632 435.367 10.4406L434.981 10.5455L433.838 10.6454C433.517 10.7328 433.115 10.7719 432.777 10.7936C432.374 10.8327 431.634 10.8934 431.634 10.8934C431.377 10.9633 430.881 11.169 430.466 11.423L429.509 11.9659L428.534 12.443C428.358 12.5613 428.072 12.7803 427.88 12.8327L427.29 13.205L426.846 13.608L425.257 14.8871L424.971 15.1061C423.715 16.0829 423.604 16.1836 421.845 17.8616C421.704 18.1115 421.295 18.6461 420.009 19.772L419.138 20.6439L418.835 20.7971C418.595 20.9328 418.28 21.3009 418.058 21.5024L417.9 21.6864L416.859 22.9572C416.116 23.7942 415.357 24.5653 414.678 25.3847L413.169 27.4883L412.456 28.1762L412.222 28.5926L410.801 30.2489L410.848 30.1656L410.643 30.4329L410.345 30.8668L409.058 32.7689L408.9 32.9529L407.941 34.272L407.554 35.1531L406.594 36.4722C406.436 36.6563 406.155 37.1559 406.109 37.2392L405.448 38.1244L404.939 38.545L403.951 40.0131L402.92 41.8453L402.604 42.2133L401.995 43.2959L400.701 45.6935L400.215 46.4605L399.858 47.1925L398.682 48.9938L397.886 50.4095L397.587 50.8434L397.634 50.7601L397.195 51.4439L395.479 54.5909L394.565 56.6029L394.079 57.3699L393.288 59.0663L392.872 60.0965L393.368 59.8908L393.543 59.7726L393.847 59.6194L394.617 59.4095L395.382 58.9191L399.309 57.6377L399.519 57.651C400.512 57.2397 401.042 57.1656 401.427 57.0607C401.748 56.9733 402.069 56.8859 403.143 56.5228L404.036 55.9974L405.752 55.4595L407.969 54.9967C409.877 54.4063 412.427 53.6412 414.353 53.1167L414.528 52.9984L415.7 52.7495L418.349 52.0985L422.393 50.997L423.18 50.8529L425.876 50.1186L426.436 49.8955L426.646 49.9088C428.957 49.2794 430.596 48.9739 431.868 48.839C432.06 48.7866 432.398 48.765 432.591 48.7125L433.378 48.5685L434.161 48.1438L434.803 47.969L435.013 47.9823L435.561 47.974L436.01 47.8517L437.457 47.5986L438.069 47.5728L438.81 47.5121L439.726 47.3331L441.125 47.1633L441.831 46.971L444.392 46.7672L444.473 46.8155L445.115 46.6406C445.308 46.5882 445.436 46.5532 445.71 46.5491L446.609 46.3043L447.093 46.3135L447.431 46.2919L454.075 45.3988L454.907 45.9477L454.952 46.6406C454.625 47.2235 454.432 47.276 454.239 47.3284C452.921 47.5465 451.65 47.6813 450.652 47.812L449.573 47.8944L449.445 47.9293C449.316 47.9643 449.188 47.9993 449.107 47.951L444.119 48.6043C443.863 48.6743 443.524 48.6959 443.332 48.7483L442.078 48.949C440.421 49.1887 440.404 49.1229 439.103 49.4068C438.782 49.4942 438.012 49.704 437.352 49.813C437.096 49.883 436.39 50.0753 436.051 50.0969C435.666 50.2018 435.007 50.3109 434.879 50.3459L433.531 50.713L432.842 50.9711L431.926 51.1501C431.028 51.3949 430.754 51.399 430.497 51.469C430.24 51.5389 430.03 51.5256 429.003 51.8053L426.273 52.4081L425.888 52.513L423.368 53.1291L422.982 53.234L422.23 53.5096L421.057 53.7585L418.04 54.5802L417.673 54.7509L417.142 54.825L416.774 54.9957L414.895 55.4369L414.399 55.6426L413.483 55.8216L412.602 56.1322L411.896 56.3245C410.805 56.6217 409.731 56.9847 408.722 57.3303L408.097 57.5709L407.088 57.9165L406.703 58.0214C404.17 58.8523 401.59 59.7665 399.075 60.6633L398.754 60.7507C398.515 60.8864 398.066 61.0088 397.745 61.0962L397.505 61.232L391.371 63.5375C391.325 63.6208 391.167 63.8049 391.167 63.8049L390.664 64.5061L389.486 67.0835L389.385 67.7456L388.904 68.7933L388.547 69.5253L388.306 70.4372L387.379 72.6641L386.852 73.795L385.573 77.0345L384.598 80.1209L384.071 81.2518C383.948 81.5674 383.877 82.0805 383.736 82.3303L383.391 82.8474C383.221 83.2463 383.039 83.8601 382.95 84.3073C382.955 84.588 382.85 84.9694 382.855 85.2501L382.22 87.5386L381.996 88.5163L381.89 88.8977L381.77 90.2702L381.377 91.6468C381.382 91.9275 381.276 92.3089 381.281 92.5896L380.799 94.4134L380.709 95.6368L380.473 96.8294L380.537 96.8119C380.512 97.2416 380.296 97.7238 380.271 98.1535L380.063 99.9732L380.044 100.684L379.68 101.911C379.719 102.323 379.666 102.902 379.688 103.249L379.005 106.397L379.233 108.309L379.148 109.813L379.105 110.953L378.886 112.211L378.645 113.123L378.574 113.636L378.222 114.649L377.8 115.398L377.391 115.933L376.959 116.121L376.749 116.108L376.265 116.099L375.531 115.664L375.299 115.304L375.131 114.927L374.947 113.708L375.025 112.699L375.162 111.392L375.443 108.284L375.523 106.499L375.825 104.513L376.007 103.899L376.103 102.956L376.432 101.597L376.568 101.066L376.868 99.8564L377.045 98.9619L377.116 98.4489L377.446 97.0898L377.428 97.024L377.652 96.0463C378.36 92.4686 379.307 88.7551 380.171 85.7695L380.296 84.6777L380.695 83.5818L380.989 82.8672C381.124 82.3367 381.388 81.7713 381.523 81.2408L382.045 79.8292L382.345 78.6191L383.348 76.1599C383.331 76.0941 383.377 76.0108 383.424 75.9276L385.747 69.8648L386.158 68.554L387.009 66.5595L387.284 65.7792L387.659 65.1129C387.449 65.0996 387.193 65.1695 387 65.222C385.926 65.585 384.951 66.0621 383.942 66.4077L383.224 66.8149L381.14 67.5234L380.212 67.9173L377.235 69.1513L376.996 69.287C376.372 69.5276 375.91 69.8649 375.286 70.1055L372.092 71.8217L370.486 73.035L370.246 73.1707L369.429 73.4638L368.775 73.8535L367.549 74.6813C367.087 75.0185 365.651 75.8329 364.74 76.2925L361.979 77.8205L361.547 78.0087L359.118 79.2344L357.208 80.6009L355.923 81.7268L354.205 83.0408L353.902 83.1941L352.722 83.9385L351.392 84.3715L350.394 84.5021L348.809 84.2288L348.169 83.6275L347.966 83.1186L347.879 82.7897L347.822 82.3116L348.068 81.6804L348.554 80.9134L348.887 80.6111L349.6 79.9232L351.083 79.0256L352.678 78.0272L353.699 77.4668L354.242 77.1778L355.649 76.5125L356.35 76.0395L357.231 75.729L357.996 75.2385L358.381 75.1336L358.428 75.0503L359.275 74.6081L359.864 74.2359L360.536 73.912L361.032 73.7063L361.668 73.2508L362.374 73.0585L364.517 72.0518Z" fill="#FBCFB9"/>
<path id="Vector_5" d="M288.28 174.55L288.185 172.884C288.098 172.555 288.088 171.993 288.019 171.73L288.05 170.805L288.1 169.169L288.279 167.499L288.409 166.688L288.456 166.604C288.439 166.538 288.498 166.24 288.544 166.157C288.728 164.767 289.065 162.912 289.377 161.488C289.424 161.404 289.407 161.338 289.389 161.273L289.556 159.817L289.979 158.291L290.051 157.778L290.484 156.814L291.036 155.253L292.304 151.452L294.022 147.529L294.527 146.052L294.815 145.056L295.295 144.009L295.729 143.044L296.227 142.063L297.129 140.265L297.334 139.998C297.363 139.849 297.521 139.665 297.55 139.516L297.896 138.999L298.458 137.999L299.172 136.535L300.454 134.353L300.642 134.02L301.122 132.972L302.182 130.991L302.791 129.908L303.324 129.058L303.967 128.107L304.266 127.673L304.576 127.024L305.442 125.872L306.759 123.821L307.227 122.988C308.356 121.27 309.422 119.569 310.428 118.167L310.832 117.352L311.451 116.83L311.814 116.379C312.65 115.375 313.451 114.24 314.288 113.237L314.744 112.619L315.328 111.966L315.967 110.734L317.44 109.275C318.638 107.821 320.042 106.098 321.305 104.626L321.761 104.008L324.842 100.56L325.204 100.108L325.503 99.6746L326.28 98.9692L326.327 98.886L326.877 98.1015L327.415 97.5319L327.748 97.2296L328.337 96.8574L328.91 96.4194L329.708 94.2275L329.932 93.2498L330.02 92.8025L330.744 90.0668L331.051 88.3612L331.328 86.8047L331.417 86.3575L331.547 85.5463L331.568 84.0597L331.025 84.3487L329.88 85.2247L329.74 85.4746L329.296 85.8776L328.6 86.6313L327.349 87.8887C327.255 88.0553 326.987 88.3401 326.987 88.3401L325.233 90.2987L325.058 90.417L324.771 90.636L324.374 90.9557L323.269 92.244L322.591 93.0635L320.844 94.5266L320.131 95.2144L319.704 95.6833L319.576 95.7182L318.505 97.1381L317.541 98.1765L317.225 98.5446L317.085 98.7945L316.325 99.5656L315.974 99.8021L314.731 100.564L314.602 100.599C313.393 101.492 312.401 101.904 311.421 102.1C311.036 102.205 310.325 102.117 309.737 101.713L309.143 101.028L309.005 100.502L308.977 99.8748L309.156 98.2042L309.267 98.1034L309.513 97.4722C309.607 97.3056 309.718 97.2049 310.193 95.8766L310.632 95.1928L311.492 93.7596L311.85 93.0276L312.37 92.3922L312.792 91.6427L313.201 91.1081L313.635 90.1437L314.313 89.3243L314.565 88.9737L314.863 88.5398L315.606 87.7029L315.892 87.4839L316.57 86.6644L317.295 85.7617L317.576 85.2621L318.856 83.8555L318.985 83.8206L319.079 83.654L319.821 82.8171L319.868 82.7338L321.101 81.4106L321.528 80.9417L323.474 78.9306C324.918 77.6207 326.996 76.6315 327.894 76.3867C327.959 76.3692 328.04 76.4175 328.104 76.4001C328.378 76.3959 328.507 76.3609 329.317 76.5634L329.922 77.0331L330.201 77.3097C330.382 77.4721 330.73 78.0118 330.887 78.6039C331.043 79.1961 331.199 79.7882 331.14 80.0863L331.133 80.5819L332.026 80.0564L333.018 79.6451L333.532 79.5052L334.144 79.4795L334.878 79.9142L335.051 80.5722L335.2 81.6599L334.866 82.7383L334.76 83.1198L334.659 83.7818L334.248 85.0927C334.142 85.4741 333.913 86.1711 333.76 86.6358C333.677 87.3637 333.424 88.4905 333.323 89.1526L333.233 90.376L333.061 91.5511L332.862 92.099L332.778 92.8269L334.794 91.079L335.426 90.3428L335.776 90.1063L336.973 89.4277L338.673 88.0478C339.45 87.3425 340.023 86.9045 340.565 86.6155L340.881 86.2475L341.389 85.8269L343.164 84.9909C343.164 84.9909 343.228 84.9734 343.468 84.8377L344.168 84.3647L344.776 84.0583L345.284 83.6378L346.049 83.1473L346.528 82.8758L347.935 82.2105L349.726 81.4403L350.524 81.8576L350.797 82.6297L350.375 83.3792L350.007 83.5499L349.622 83.6548C349.19 83.843 348.793 84.1627 348.425 84.3334L348.011 84.5874L347.322 84.8455L345.343 85.9488L344.788 86.4526L344.052 86.794L343.509 87.083C343.077 87.2712 342.68 87.5909 342.312 87.7616L342.073 87.8974L340.519 89.308L339.134 90.3198L338.246 91.1259L337.242 91.7521C336.366 92.3433 335.559 93.1977 334.086 94.6567L333.373 95.3446L332.724 96.0149L332.421 96.1681L331.217 97.3423L330.818 98.4383L330.454 99.6658L330.037 100.696L329.996 101.06L329.239 102.888L326.985 109.214C326.692 109.928 326.468 110.906 326.175 111.621L325.202 113.931L324.897 114.86C324.475 115.61 324.51 115.741 324.387 116.057L324.005 117.219L323.16 119.494C322.574 120.923 321.876 122.453 321.307 123.948L320.275 126.556L320.152 126.871L319.682 128.48L317.442 133.815L316.456 136.34L313.689 142.806C313.12 144.301 312.487 145.813 311.837 147.26L310.969 149.189C310.986 149.254 310.974 149.469 310.974 149.469L308.964 154.107C308.575 155.764 307.976 157.408 307.274 158.657L306.483 160.354C306.19 161.068 305.721 161.901 305.3 162.651C304.925 163.317 304.521 164.132 304.245 164.912L303.523 166.872L303.294 167.569L302.819 168.897C302.526 169.612 302.245 170.112 301.993 170.462C301.741 170.813 301.455 171.032 301.278 171.926L300.916 172.378L299.967 174.258L298.766 176.489L298.31 177.107C297.38 178.277 296.579 179.412 295.206 180.209L293.945 180.905L291.846 180.772L291.13 180.403C290.431 180.099 289.984 179.446 289.321 178.498C289.321 178.498 289.304 178.432 289.17 178.186C288.886 177.629 288.625 176.642 288.534 176.033C288.429 175.638 288.384 174.945 288.28 174.55ZM323.023 112.973L324.314 109.518L324.93 107.94C324.942 107.725 325.053 107.625 325.065 107.41L325.876 105.003L326.087 104.24L327.477 100.9L326.401 102.039L325.723 102.858L324.536 104.098L322.215 106.776L321.426 107.696L319.783 109.554L319.041 110.391L316.52 113.616L316.017 114.317C313.8 117.389 311.6 120.527 309.546 123.696L309.435 123.797L309.066 124.744L308.417 125.414C306.819 127.965 305.11 130.616 303.676 133.264L303.306 134.211L302.833 134.763L302.317 135.679L302.212 136.06L301.625 137.489L300.688 139.155L300.437 139.505L299.902 141.132L298.49 144.126L296.839 147.255L296.07 149.298C295.355 150.762 294.781 151.976 294.552 152.673L293.848 154.699C293.631 155.181 293.525 155.562 293.326 156.11C293.296 156.259 293.284 156.474 293.19 156.641C293.131 156.939 292.772 158.447 292.613 159.407L292.229 161.345C291.61 164.476 291.008 167.672 290.674 170.584C290.744 170.847 290.719 171.277 290.789 171.54L290.886 172.43L290.759 174.298C290.891 175.32 291.139 176.522 291.493 177.342C291.93 177.435 293.526 175.66 293.777 175.309L294.987 174.416L295.502 173.5L296.846 172.076C298.104 170.323 299.596 168.153 300.569 165.843C300.739 165.444 301.301 164.445 301.91 163.362C303.081 161.28 304.738 158.431 306.868 152.421L308.492 148.665C308.709 148.182 309.037 147.599 309.236 147.051L310.949 142.847C311.436 141.304 312.21 139.542 312.819 138.46C313.376 137.18 314.073 135.65 314.548 134.321L314.701 133.857L315.475 132.095L316.981 128.934L317.456 127.606L317.579 127.29L318.225 125.563L318.712 124.02L318.976 123.454L318.959 123.389L319.397 122.705L320.131 120.53L320.272 120.281C320.7 119.036 321.129 117.79 321.575 116.611L321.727 116.147L322.05 115.283L322.168 114.687L322.666 113.705L323.023 112.973ZM326.763 84.0993L326.827 84.0819L326.985 83.8978L326.834 83.5863L326.742 82.9767L326.843 82.3146L326.949 81.9332L327.096 81.1878L327.53 80.2235L327.712 79.6097L327.912 79.0617C327.287 79.3024 326.539 79.8586 325.745 80.4982L325.365 80.8837L324.938 81.3526L324.307 82.0887L323.897 82.6234L323.389 83.0439L322.624 83.5344L322.18 83.9374C321.83 84.1739 321.578 84.5245 321.327 84.8751C320.473 85.8128 319.555 86.7679 318.672 87.8547L318.187 88.6217L317.649 89.1913L317.304 89.7084L316.356 90.8127L315.286 92.2326L314.297 93.7007L313.407 95.283L313.161 95.9143L312.897 96.4797L312.205 98.2902C312.146 98.5884 312.035 98.6891 311.976 98.9873C311.947 99.1363 311.952 99.417 311.969 99.4828L311.846 99.7984C311.846 99.7984 311.91 99.7809 311.957 99.6977C312.261 99.5444 312.692 99.3563 312.85 99.1722L312.961 99.0715L313.692 98.4494L314.545 97.5117L314.942 97.1919L315.34 96.8722L316.082 96.0353L316.871 95.1151L317.251 94.7295L317.695 94.3264L318.549 93.3888L319.052 92.6876L319.683 91.9514L320.9 90.5624L322.478 88.722L323.642 87.1355L324.227 86.4827L324.543 86.1146L325.191 85.4442L326.319 84.5024L326.57 84.1518L326.763 84.0993Z" fill="#FBCFB9"/>
<path id="Vector_6" d="M281.098 104.084L281.285 103.751C281.285 103.751 281.332 103.668 281.314 103.602L281.556 102.69L281.797 101.778L282.225 100.533L283.042 97.6311L283.225 97.0174L283.348 96.7017L283.761 94.6147L284.356 91.9139C284.397 91.55 284.429 90.6247 284.413 89.7828C284.385 89.1557 284.2 88.7126 284.113 88.3836C283.974 87.8573 283.888 87.5283 283.912 87.0986C283.948 86.454 284.627 85.6345 285.333 85.4422C287.002 84.9876 287.921 85.8655 287.905 87.6327C287.891 88.6238 287.697 89.4524 287.52 90.3468L287.011 93.3766L286.63 94.5383L286.5 95.3495L286.352 96.0948L285.766 97.5239L285.759 98.0194L285.478 98.5191C285.231 99.1504 284.943 100.146 284.761 100.759L284.133 102.552C284.092 102.916 284.072 103.627 283.996 103.859L283.691 104.788L283.802 104.688L284.428 103.671L285.681 101.637L285.804 101.322L285.863 101.023L286.699 100.02L286.886 99.6868L287.658 98.7008L287.816 98.5168L289.19 96.9437L289.429 96.808L290.3 95.9361C290.475 95.8178 290.616 95.568 290.791 95.4498C291.253 95.1125 292.222 94.3547 292.689 94.2981L292.946 94.2282L294.375 93.9093L295.447 94.3225L296.25 95.0205L296.738 96.0865L296.894 96.6786L297.003 97.3541L297.083 98.1786L297.14 98.6566L297.313 99.3145L297.362 101.064C297.414 101.262 297.384 101.411 297.436 101.608L297.703 102.1L297.854 102.411C297.971 102.591 298.203 102.951 298.284 102.999L298.435 103.31L298.814 103.701C298.895 103.749 298.831 103.767 298.895 103.749L299.542 103.855C300.33 103.711 301.147 103.418 302.186 102.924L303.202 102.082L303.634 101.894C303.874 101.759 304.207 101.456 304.382 101.338L304.878 101.132L305.737 100.475L307.454 99.1613L307.647 99.1088L308.634 98.4168L310.538 96.7697L311.217 95.9502L311.52 95.797L312.741 94.6886L313.104 94.2373L313.496 93.6368L313.987 93.1505L315.559 91.8056L317.394 89.8953L317.71 89.5272L318.405 88.7736L318.692 88.5546L319.37 87.7351L320.076 87.5428L320.548 87.7669L320.827 88.0434L320.889 88.8021L320.369 89.4375L319.422 90.5417C318.808 91.3437 318.27 91.9133 317.715 92.4171L316.943 93.4031L316.37 93.8411L315.581 94.7613L314.915 95.3659C314.488 95.8347 313.869 96.356 313.092 97.0614L312.221 97.9332L309.778 100.15L309.65 100.185C309.445 100.452 309.112 100.755 308.972 101.004L308.212 101.776L307.383 102.283C307.143 102.419 306.892 102.77 306.67 102.971L306.162 103.392L305.49 103.716L304.755 104.057L304.323 104.245L304.101 104.447L303.861 104.583L303.686 104.701C303.575 104.802 303.336 104.937 302.951 105.042L302.408 105.331L301.818 105.703L301.129 105.962L300.342 106.106L299.991 106.342L299.332 106.451C298.626 106.643 297.915 106.555 297.268 106.449L297.204 106.467L296.912 106.405C296.184 106.251 295.479 105.667 295.079 104.93C294.928 104.619 294.824 104.224 294.702 103.763L294.494 102.974L294.543 102.114L294.564 100.628L294.599 98.15C294.564 98.0185 294.559 97.7378 294.524 97.6062C294.415 96.9308 294.148 96.4394 293.728 96.4127C293.535 96.4652 293.232 96.6184 293.057 96.7366C293.057 96.7366 293.027 96.8857 292.852 97.004L292.472 97.3895L291.917 97.8933L291.409 98.3139L290.683 99.2166L290.397 99.4356L289.929 100.268L289.443 101.035L288.812 101.772C288.624 102.105 288.267 102.837 288.062 103.104L287.589 103.656L287.162 104.125L287.021 104.375L286.348 105.475L286.237 105.576L285.81 106.044L285.559 106.395L285.418 106.645L284.844 107.859L284.23 108.661L283.404 110.226L282.016 112.79L281.735 113.29L280.741 114.477L280.181 114.7C279.359 114.713 278.946 114.191 278.597 113.651C278.394 113.142 278.233 112.269 278.79 110.989L279.049 110.143L279.911 107.934L280.105 107.105L280.475 106.158L280.534 105.86L281.098 104.084Z" fill="#FBCFB9"/>
<path id="Vector_7" d="M280.242 109.042L279.798 109.445L279.184 110.247L278.39 110.886L277.911 111.158L277.548 111.609L277.391 111.793C277.151 111.929 276.882 112.214 276.643 112.35L276.105 112.919L275.819 113.138L274.756 114.063L274.551 114.33L273.697 115.268L273.236 115.605C273.189 115.688 272.967 115.89 272.903 115.907L272.143 116.678L271.746 116.998L271.331 117.252L270.356 117.729L269.579 118.434L268.715 118.811L267.799 118.99L267.081 119.397L265.261 119.54C264.568 119.518 263.95 119.263 263.327 118.727L262.902 118.42L262.828 117.876C262.642 117.433 262.481 116.56 262.517 115.915L262.413 115.521L262.516 114.082L262.682 112.627C262.665 112.561 262.741 112.329 262.707 112.197L262.977 111.136L263.288 110.487C263.271 110.421 263.3 110.272 263.3 110.272L263.739 109.589L263.921 108.975C263.98 108.677 264.167 108.344 264.226 108.045L264.298 107.532L264.433 107.002L264.573 106.752C264.697 106.436 264.785 105.989 264.926 105.739L265.278 104.727L265.384 104.345L265.911 103.214L266.556 101.487L266.669 100.61L267.226 99.3303L267.426 98.7823L267.544 98.186L267.795 97.8354L268.283 96.2922L268.682 95.1963L269.214 94.346C269.495 93.8463 270.319 93.0577 271.282 92.7955C271.766 92.8047 272.297 92.7306 272.984 93.2487L273.105 93.7092L273.22 94.6653L272.815 95.4806L272.271 96.5457L271.563 97.5142L270.826 98.6318L270.754 99.1448L269.864 100.727L269.465 101.823L269.19 102.603L268.862 103.186C268.85 103.401 268.884 103.533 268.902 103.599L268.364 104.168C268.381 104.234 268.305 104.466 268.275 104.615L267.607 105.996L266.986 107.294L266.711 108.074L266.528 108.688L266.152 110.13L265.918 110.547C265.73 110.88 265.748 110.945 265.718 111.095L265.628 112.318L265.586 112.682L265.355 114.155L265.381 115.558L265.451 115.822L265.53 116.646L265.583 116.843L266.032 116.721L266.498 116.664L266.738 116.529L267.106 116.358L267.508 116.319L267.829 116.231C268.261 116.043 268.594 115.741 269.09 115.535L269.616 115.181L270.159 114.892C270.205 114.808 270.316 114.708 270.316 114.708L271.187 113.836L271.392 113.568L272.828 112.754L273.751 112.08L274.23 111.808L276.071 110.178L276.515 109.775L277.386 108.903L278.081 108.15L278.508 107.681L278.876 107.51L279.191 107.142L279.887 106.389L280.267 106.003L280.74 105.451L280.928 105.118L281.816 104.312L282.068 103.961L283.4 102.752L283.891 102.266L284.002 102.165L284.364 101.713L284.493 101.679L284.727 101.262L285.124 100.942L285.312 100.609L285.914 100.022L286.293 99.6366L286.515 99.4351L286.849 99.1328C287.228 98.7472 287.527 98.3133 288.018 97.827L288.316 97.3931L289.039 97.2666L289.674 97.5873L289.895 98.1619L289.397 99.1438L289.046 99.3803L288.748 99.8142L287.86 100.62L286.2 102.412L285.726 102.964L285.082 103.915L284.668 104.169L284.382 104.388C283.434 105.493 282.505 106.663 281.587 107.618L281.306 108.118L281.084 108.319L280.447 108.775L280.242 109.042ZM277.358 75.1327L277.457 75.2468C277.625 75.6241 277.793 76.0014 277.838 76.6943C277.708 77.5055 277.321 78.3866 276.117 79.5607L275.503 80.3627L275.298 80.63C275.047 80.9806 274.62 81.4494 274.433 81.7826L273.555 83.15L272.754 84.285L272.391 84.7364C272.122 85.0212 271.673 85.1436 271.223 85.266L270.87 84.4456L270.864 84.165L271.191 81.749L271.326 81.2185L271.86 79.592L272.183 78.7284L272.353 78.3295L272.757 77.5142L273.12 77.0629L273.418 76.629L274.121 75.3798L274.787 74.7753L275.266 74.5038C276.392 74.3382 276.962 74.6763 277.358 75.1327Z" fill="#FBCFB9"/>
<path id="Vector_8" d="M312.966 45.3352L313.724 45.3402L314.674 45.2928C314.948 45.2887 315.141 45.2362 315.269 45.2013C315.654 45.0964 315.928 45.0922 316.348 45.1189C316.669 45.0315 316.896 45.1106 317.217 45.0232L317.83 44.9974L318.995 45.244L321.694 45.5666L322.697 45.7165L323.21 45.5767L323.484 45.5725L323.951 45.5159L324.354 45.4768L325.275 45.5785L325.729 45.7368L326.655 46.1191L326.574 46.0708C326.994 46.0975 327.191 46.3257 327.29 46.4398C327.663 46.5498 328.217 46.8221 328.525 46.9496L329.007 47.735L328.936 48.248L328.295 48.4228L327.635 48.5319L326.919 48.1629L326.045 47.9779L319.165 47.4544L318.844 47.5418L318.244 47.3527C318.081 47.2561 317.743 47.2777 317.276 47.3343L316.454 47.3467C316.325 47.3817 316.098 47.3025 316.034 47.32L314.792 47.3058L312.716 47.5188C311.765 47.5662 310.943 47.5786 309.945 47.7093C309.817 47.7443 309.578 47.88 309.513 47.8975L308.674 47.8441L308.563 47.9449L308.289 47.949L307.356 48.0622C306.277 48.1446 305.232 48.3585 304.107 48.5242C303.978 48.5591 303.897 48.5108 303.832 48.5283L303.447 48.6332L299.107 49.3924L297.811 49.9569L297.362 50.0793L294.982 50.4456L294.661 50.533L293.938 50.6595L292.701 50.9259L292.491 50.9126L291.109 51.1482L290.403 51.3405C290.146 51.4104 289.936 51.3971 289.743 51.4495L289.487 51.5195C289.358 51.5544 289.213 51.5236 289.084 51.5586L282.602 53.3245L282.071 53.3986L281.558 53.5384L279.025 54.3694L275.816 55.2436L275.285 55.3177L274.818 55.3743L270.069 56.6681L268.995 57.0311L268.482 57.171L267.874 57.4774L266.719 57.7921L266.107 57.8179L265.546 58.041L265.004 58.33L264.31 58.3074C264.181 58.3424 264.006 58.4607 263.878 58.4956L263.3 58.653L263.061 58.7887L262.454 59.0951L261.987 59.1517L261.701 59.3707L261.059 59.5456L260.271 59.6896L259.95 59.777L258.381 60.3457C258.205 60.464 257.82 60.5689 257.563 60.6388L257.085 60.9103L256.046 61.4049L254.955 61.7021C254.202 61.9777 253.484 62.3849 252.731 62.6605L252.047 63.1993L250.798 63.6805L250.524 63.6847L250.267 63.7546C250.092 63.8729 249.724 64.0436 249.404 64.131L249.246 64.315L248.685 64.5382L247.92 65.0286L246.526 65.4791C246.094 65.6673 245.632 66.0045 245.265 66.1752L244.704 66.3984C244.144 66.6215 243.49 67.0112 242.994 67.2169L240.291 68.4467L238.452 69.3002L236.041 70.5917L235.195 71.0339L234.891 71.1871C234.395 71.3928 233.998 71.7126 233.502 71.9182L233.023 72.1897L231.937 72.7676L229.526 74.0591L228.405 74.5054L225.942 75.5995C224.75 76.5588 223.489 77.2549 222.613 77.8462L219.348 80.0754L217.515 81.2095C216.463 81.919 215.336 82.8608 214.383 83.6844L214.05 83.9867L212.56 85.3799C212.052 85.8004 211.608 86.2035 210.93 87.0229C209.918 88.1446 209.287 88.8808 208.848 89.5645C208.865 89.6303 208.853 89.8451 207.777 90.9844L207.526 91.3349L206.129 92.5616C205.779 92.7981 205.266 92.9379 204.624 93.1128C203.784 93.0594 203.196 92.6555 202.998 92.4272L202.778 91.8526C202.57 91.0631 202.7 90.2519 203.169 89.4191L203.543 88.7529L204.157 87.9509L204.801 86.9999L206.256 85.4752L207.004 84.9189L208.038 84.1436L209.452 82.9828L210.088 82.5273L212.033 81.2924C212.08 81.2091 212.43 80.9726 212.541 80.8718L214.819 79.3346L215.87 78.6252L217.289 77.745L219.024 76.4967L220.204 75.7523L223.14 74.106L224.256 73.3791L224.846 73.0069L225.709 72.6305L226.655 72.3024L228.733 71.3132L231.337 69.9693L232.183 69.5271L232.726 69.2382L235.826 67.6885L236.836 67.343L237.011 67.2247C237.986 66.7476 239.054 66.1039 240.029 65.6268L241.039 65.2813L242.142 64.7692L243.695 64.1347C244.174 63.8632 244.682 63.4427 245.225 63.1538L246.089 62.7774L247.145 62.3486L248.476 61.9156L249.147 61.5917L249.865 61.1845L252.864 60.297L253.121 60.227C253.442 60.1396 253.874 59.9514 254.242 59.7807L256.051 59.0763C256.244 59.0239 256.436 58.9714 256.675 58.8357L256.979 58.6825L257.954 58.2053L258.386 58.0172L259.734 57.65L263.083 56.5259L263.323 56.3902L264.187 56.0139L264.554 55.8432L265.552 55.7125L265.809 55.6426C265.873 55.6251 265.92 55.5418 266.176 55.4719L271.066 53.9282L271.306 53.7925L271.755 53.6701L272.491 53.3287L275.186 52.5943L275.46 52.5902L276.773 52.0915L277.561 51.9474L278.185 51.7068L279.067 51.3962L281.395 50.8326L282.824 50.5137L284.3 50.1116L285.537 49.8452L286.564 49.5655L287.574 49.2199L288.309 48.8785L289.563 48.6779L290.299 48.3365L290.748 48.2141L291.425 48.1709L292.229 48.0927L292.696 48.0361L293.402 47.8437L294.79 47.8888C295.239 47.7664 295.834 47.6749 296.236 47.6358L296.686 47.5134L299.643 46.9898L303.021 46.4928L302.957 46.5103C303.085 46.4754 303.196 46.3746 303.324 46.3396L303.872 46.3313L304.339 46.2747L305.418 46.1924C305.611 46.1399 305.756 46.1708 305.949 46.1183L306.415 46.0617L307.331 45.8827L307.781 45.7603L308.684 45.7962C308.83 45.827 309.361 45.753 309.489 45.718L310.294 45.6398L310.971 45.5965L311.857 45.5666C312.178 45.4792 312.645 45.4226 312.966 45.3352ZM242.59 118.664L241.997 120.589L241.628 121.536L241.645 121.601L241.562 122.329L241.456 122.711L240.868 124.916L239.733 128.962L239.485 130.37C239.502 130.436 239.49 130.651 239.49 130.651L238.969 133.895L238.728 134.807L238.534 135.636C238.426 136.793 238.22 137.837 238.112 138.994C238.147 139.126 238.105 139.49 238.14 139.622L238.225 140.727C238.258 141.635 237.836 142.384 237.422 142.638C236.815 142.944 236.214 142.755 236.07 141.948C236.053 141.883 236.083 141.733 236.065 141.668L235.939 140.926L236.05 138.216L236.713 133.946C237.169 130.719 237.683 127.97 238.325 125.186L238.715 122.752L238.902 122.419C239.02 121.823 239.291 120.762 239.508 120.28L239.727 119.021L240.521 115.772L240.91 114.115L241.444 112.489L242.114 110.332L242.759 108.605L243.826 106.128L244.267 104.668L245.094 102.327L245.353 101.481L246.691 97.9431L247.353 96.2817C247.442 95.8345 247.659 95.3523 247.747 94.9051L248.052 93.9757L248.854 90.2314L248.995 89.9816C249.007 89.7667 249.048 89.4028 249.125 89.1704L249.987 86.961C250.063 86.7287 250.105 86.3647 250.199 86.1982L250.839 84.1903L251.491 81.9676L252.015 79.7798L252.298 78.504L252.574 77.7236L253.207 76.2113L253.811 74.848L255.155 73.424C255.851 72.6704 257.058 72.553 257.617 73.1061C258.309 73.9048 258.191 74.5011 257.936 76.404L257.719 76.8862L257.448 77.9472L256.728 79.1306L256.265 80.244L256.282 80.3098L255.807 81.6381L255.085 83.5977L254.58 85.0751L253.829 87.1837L253.536 87.8982L252.703 89.9586L252.292 91.2694L251.753 92.6152L251.376 94.0576L251.177 94.6055L250.96 95.0877L250.772 95.4208L250.063 97.1655L250.097 97.2971L249.95 98.0425L249.329 99.34L247.974 102.812L247.622 103.825L247.533 104.272L247.034 106.03L246.583 106.928L245.843 108.822L245.051 111.295L244.253 113.487L244.006 114.118L243.777 114.815L243.541 116.007L242.984 117.287L242.925 117.586L242.59 118.664Z" fill="#FBCFB9"/>
<path id="Vector_9" d="M191.937 129.924L191.777 130.884L191.805 131.511L191.675 132.322L191.702 132.95C191.708 133.23 191.76 133.428 191.812 133.625L191.945 133.871L192.289 134.13L192.58 134.191C192.708 134.156 192.901 134.104 193.012 134.003L193.584 133.565L193.76 133.447L195.852 131.467L196.22 131.296L198.272 128.903C198.272 128.903 198.336 128.886 198.383 128.803L199.488 127.514L199.757 127.23L200.055 126.796L200.657 126.209C200.926 125.924 201.16 125.507 201.429 125.223L201.587 125.039L202.107 124.403L202.593 123.636L203.382 122.716L203.925 122.427L204.38 122.585L204.758 122.976L205.042 123.533L205.035 124.029L204.492 124.318C204.317 124.436 204.177 124.686 204.001 124.804L203.353 125.474L203.165 125.807L202.615 126.592C202.288 127.175 201.516 128.161 200.568 129.265L200.048 129.9L199.89 130.085L199.656 130.501L199.456 131.049L199.03 131.518L198.919 131.619C198.808 131.719 198.731 131.952 198.62 132.052L198.527 132.219L197.989 132.789L197.708 133.288L197.357 133.525L196.785 133.963L196.341 134.366L195.411 135.536L195.3 135.637L194.891 136.171L194.511 136.557L194.002 136.977L193.459 137.266L192.835 137.507L192.549 137.726L192.07 137.997C191.813 138.067 191.685 138.102 191.411 138.106C191.282 138.141 191.107 138.26 190.979 138.295L190.262 137.926C190.164 137.811 190.129 137.68 190 137.715L189.447 137.442L188.953 136.872L188.653 135.473L188.405 134.271L188.313 133.661L188.45 132.355C188.433 132.289 188.714 131.789 188.696 131.723L188.861 131.044L188.903 130.68L188.998 129.737L189.239 128.825C189.229 128.264 189.278 127.405 189.378 126.742L189.498 125.37L189.46 124.182C189.718 123.335 189.883 122.656 189.628 121.95L189.576 121.752C189.191 121.857 188.952 121.993 188.508 122.396L187.509 123.303L187.205 123.456C187.047 123.64 186.872 123.758 186.778 123.925L186.275 124.626L186.228 124.709L185.784 125.112L185.439 125.629L184.265 126.655L184.089 126.773L183.441 127.443L183.253 127.776L180.5 130.642L179.962 131.211L178.956 132.614L178.014 133.999L176.429 136.335L175.03 138.337L173.849 139.858L173.516 140.16L173.136 140.546L172.423 141.234L171.646 141.939L170.903 142.776L170.203 143.249L170.267 143.232L169.613 143.621L168.796 143.914L168.201 144.006L167.304 143.474L166.968 142.72L166.836 141.698L166.897 140.624C166.862 140.492 166.903 140.128 166.886 140.062L167.006 138.69L167.171 138.01L167.402 136.537L167.573 135.362L167.709 134.832C167.827 134.235 168.004 133.341 168.057 132.762L168.129 132.249L168.628 130.491L168.934 129.562L169.451 127.869L169.64 126.76L169.992 125.747L170.391 124.651L170.561 124.252L171.078 122.56L171.166 122.113L171.354 121.78L171.612 120.934L171.683 120.421L171.895 119.658L172.393 118.676C172.452 118.378 172.575 118.062 173.021 116.883L173.604 114.397L174.031 113.928C174.706 112.052 175.504 109.86 176.243 107.966L176.336 107.8C176.366 107.651 176.349 107.585 176.331 107.519L176.42 107.072L176.666 106.441L176.907 105.529L177.013 105.147L177.501 103.604L177.7 103.056L177.806 102.675L178.247 101.215C178.259 101 178.399 100.75 178.411 100.535L178.705 99.8208L179.281 97.8304L179.61 96.4713L180.374 94.1478L180.603 93.4507C180.814 92.6879 181.219 91.8726 181.43 91.1097L181.524 90.9432C181.553 90.7941 181.553 90.7941 181.536 90.7283L182.046 89.5316L182.211 88.852L182.312 88.19C182.312 88.19 182.388 87.9576 182.371 87.8918L183.186 85.7657L183.76 84.5515L184.85 82.4212C185.476 81.4044 186.113 80.9489 186.597 80.9581C187.483 80.9282 188.371 82.7313 188.189 83.3451L187.238 86.0017L186.482 87.8297L185.843 89.0614L185.292 90.622L184.705 92.0511L183.532 94.9092L183.198 95.9877L183.015 96.6015L182.656 98.1097L182.282 98.7759L180.715 103.011L180.328 103.892L180.04 104.887L179.905 105.417L179.559 105.935L179.36 106.483C179.237 106.798 179.166 107.311 179.025 107.561L178.397 109.354L178.028 110.301L177.325 111.55L177.002 112.414C176.973 112.563 176.99 112.629 177.007 112.694L176.426 114.404L176.109 115.548L175.623 116.315C175.025 117.959 174.449 119.95 173.914 121.576C173.579 122.655 173.18 123.751 172.828 124.763L172.74 125.21L172.57 125.609C172.2 126.556 171.947 127.683 171.523 129.209L171.452 129.722C171.475 130.068 171.334 130.318 171.31 130.748L170.956 132.537L170.972 133.379L170.628 135.729C170.604 136.158 170.581 135.812 170.557 136.242L170.295 138.64C170.364 138.903 170.288 139.136 170.375 139.465L170.567 139.412L171.105 138.843L171.45 138.325L171.971 137.69L172.187 137.208L172.486 136.774L173.322 135.771L173.497 135.652L173.953 135.034L175.502 133.343L175.865 132.892L176.07 132.624L176.491 131.875L176.602 131.774C176.871 131.489 177.105 131.073 177.374 130.788L177.327 130.871L178.819 128.702L180.129 127.146L181.158 126.091L181.286 126.056C181.76 125.503 181.994 125.087 182.327 124.785L182.754 124.316L183.701 123.212L185.075 121.639L185.566 121.152L187.049 120.255L187.306 120.185C188.31 119.558 189.675 119.257 191.034 119.451C193.073 119.883 192.983 121.106 192.869 122.759C192.82 123.619 192.608 124.382 192.572 125.026C192.577 125.307 192.565 125.522 192.506 125.82C192.393 126.697 192.258 127.227 192.204 127.806L191.937 129.924Z" fill="#FBCFB9"/>
<path id="Vector_10" d="M166.311 140.078L165.867 140.481L165.252 141.283L164.458 141.923L163.979 142.194L163.617 142.645L163.459 142.829C163.219 142.965 162.95 143.25 162.711 143.386L162.173 143.955L161.887 144.174L160.824 145.099L160.619 145.366L159.765 146.304L159.304 146.641C159.257 146.724 159.035 146.926 158.971 146.943L158.211 147.714L157.814 148.034L157.399 148.288L156.424 148.765L155.647 149.471L154.783 149.847L153.867 150.026L153.149 150.433L151.33 150.576C150.636 150.554 150.018 150.299 149.396 149.763L148.971 149.456L148.896 148.912C148.71 148.469 148.549 147.596 148.586 146.952L148.482 146.557L148.584 145.119L148.751 143.663C148.733 143.597 148.81 143.365 148.775 143.233L149.046 142.172L149.356 141.523C149.339 141.458 149.368 141.308 149.368 141.308L149.807 140.625L149.989 140.011C150.048 139.713 150.236 139.38 150.295 139.082L150.366 138.569L150.501 138.038L150.642 137.788C150.765 137.473 150.853 137.025 150.994 136.776L151.346 135.763L151.452 135.381L151.979 134.251L152.625 132.523L152.737 131.646L153.294 130.366L153.494 129.818L153.612 129.222L153.863 128.872L154.351 127.328L154.75 126.232L155.282 125.382C155.564 124.882 156.388 124.094 157.35 123.832C157.834 123.841 158.365 123.767 159.052 124.285L159.173 124.745L159.288 125.701L158.884 126.517L158.339 127.582L157.631 128.55L156.894 129.668L156.823 130.181L155.933 131.763L155.534 132.859L155.258 133.64L154.93 134.222C154.918 134.437 154.952 134.569 154.97 134.635L154.432 135.204C154.449 135.27 154.373 135.502 154.344 135.652L153.676 137.032L153.055 138.33L152.779 139.11L152.597 139.724L152.22 141.166L151.986 141.583C151.798 141.916 151.816 141.982 151.786 142.131L151.696 143.354L151.654 143.718L151.424 145.191L151.45 146.595L151.519 146.858L151.599 147.682L151.651 147.88L152.1 147.757L152.567 147.701L152.806 147.565L153.174 147.394L153.576 147.355L153.897 147.268C154.329 147.079 154.662 146.777 155.158 146.571L155.684 146.217L156.227 145.928C156.274 145.845 156.385 145.744 156.385 145.744L157.256 144.872L157.46 144.605L158.897 143.79L159.819 143.116L160.298 142.844L162.139 141.215L162.583 140.811L163.454 139.94L164.149 139.186L164.576 138.717L164.944 138.546L165.26 138.178L165.955 137.425L166.335 137.039L166.809 136.487L166.996 136.154L167.884 135.348L168.136 134.997L169.468 133.788L169.959 133.302L170.07 133.201L170.433 132.75L170.561 132.715L170.795 132.298L171.192 131.978L171.38 131.645L171.982 131.058L172.362 130.673L172.584 130.471L172.917 130.169C173.297 129.783 173.595 129.349 174.086 128.863L174.384 128.429L175.108 128.303L175.743 128.623L175.963 129.198L175.465 130.18L175.114 130.416L174.816 130.85L173.928 131.656L172.268 133.448L171.794 134.001L171.151 134.952L170.736 135.206L170.45 135.425C169.503 136.529 168.573 137.699 167.655 138.654L167.374 139.154L167.152 139.355L166.515 139.811L166.311 140.078ZM163.426 106.169L163.525 106.283C163.693 106.66 163.861 107.038 163.906 107.73C163.776 108.542 163.389 109.423 162.185 110.597L161.571 111.399L161.367 111.666C161.115 112.017 160.688 112.486 160.501 112.819L159.623 114.186L158.822 115.321L158.459 115.773C158.19 116.057 157.741 116.18 157.292 116.302L156.938 115.482L156.933 115.201L157.259 112.785L157.394 112.255L157.929 110.628L158.251 109.765L158.421 109.366L158.826 108.55L159.188 108.099L159.486 107.665L160.189 106.416L160.855 105.811L161.334 105.54C162.46 105.374 163.03 105.712 163.426 106.169Z" fill="#FBCFB9"/>
<path id="Vector_11" d="M145.401 142.601L145.241 143.561L145.269 144.188L145.138 144.999L145.166 145.627C145.171 145.907 145.223 146.105 145.275 146.302L145.409 146.548L145.752 146.807L146.044 146.868C146.172 146.833 146.365 146.781 146.476 146.68L147.048 146.242L147.223 146.124L149.316 144.144L149.683 143.973L151.736 141.58C151.736 141.58 151.8 141.563 151.847 141.48L152.952 140.191L153.22 139.907L153.519 139.473L154.121 138.886C154.39 138.601 154.624 138.184 154.893 137.9L155.051 137.716L155.571 137.08L156.057 136.313L156.846 135.393L157.389 135.104L157.844 135.262L158.222 135.653L158.506 136.21L158.499 136.706L157.956 136.995C157.781 137.113 157.641 137.363 157.465 137.481L156.817 138.151L156.629 138.484L156.079 139.269C155.751 139.852 154.979 140.838 154.032 141.942L153.512 142.577L153.354 142.762L153.12 143.178L152.92 143.726L152.493 144.195L152.382 144.296C152.271 144.396 152.195 144.629 152.084 144.729L151.99 144.896L151.453 145.466L151.172 145.965L150.821 146.202L150.249 146.64L149.805 147.043L148.875 148.213L148.764 148.314L148.354 148.848L147.974 149.234L147.466 149.654L146.923 149.943L146.299 150.184L146.012 150.403L145.534 150.674C145.277 150.744 145.149 150.779 144.875 150.783C144.746 150.818 144.571 150.937 144.443 150.972L143.726 150.603C143.627 150.488 143.593 150.357 143.464 150.392L142.911 150.119L142.417 149.549L142.117 148.15L141.869 146.948L141.777 146.338L141.914 145.032C141.896 144.966 142.177 144.466 142.16 144.4L142.325 143.721L142.367 143.357L142.462 142.414L142.703 141.502C142.693 140.941 142.741 140.082 142.842 139.419L142.962 138.047L142.924 136.859C143.182 136.012 143.347 135.333 143.092 134.627L143.04 134.429C142.655 134.534 142.416 134.67 141.972 135.073L140.972 135.98L140.669 136.133C140.511 136.317 140.336 136.435 140.242 136.602L139.739 137.303L139.692 137.386L139.248 137.789L138.903 138.306L137.728 139.332L137.553 139.45L136.904 140.12L136.717 140.453L133.964 143.319L133.426 143.888L132.42 145.291L131.478 146.676L129.892 149.012L128.494 151.014L127.313 152.535L126.98 152.837L126.6 153.223L125.887 153.911L125.11 154.616L124.367 155.453L123.666 155.926L123.731 155.909L123.077 156.298L122.26 156.591L121.665 156.683L120.768 156.151L120.431 155.397L120.3 154.375L120.36 153.301C120.326 153.169 120.367 152.805 120.35 152.739L120.47 151.367L120.635 150.687L120.865 149.214L121.037 148.039L121.172 147.509C121.29 146.912 121.467 146.018 121.521 145.439L121.592 144.926L122.092 143.168L122.397 142.239L122.914 140.546L123.104 139.437L123.456 138.424L123.855 137.328L124.025 136.929L124.542 135.237L124.63 134.79L124.818 134.457L125.076 133.611L125.147 133.098L125.359 132.335L125.857 131.353C125.916 131.055 126.039 130.739 126.485 129.56L127.068 127.074L127.495 126.605C128.169 124.729 128.967 122.537 129.707 120.643L129.8 120.477C129.83 120.328 129.812 120.262 129.795 120.196L129.884 119.749L130.13 119.118L130.371 118.206L130.477 117.824L130.964 116.281L131.164 115.733L131.27 115.352L131.71 113.892C131.723 113.677 131.863 113.427 131.875 113.212L132.168 112.498L132.744 110.507L133.074 109.148L133.837 106.825L134.066 106.128C134.278 105.365 134.682 104.55 134.894 103.787L134.988 103.62C135.017 103.471 135.017 103.471 135 103.405L135.51 102.209L135.675 101.529L135.775 100.867C135.775 100.867 135.852 100.635 135.834 100.569L136.65 98.4427L137.224 97.2285L138.313 95.0982C138.94 94.0814 139.576 93.6259 140.06 93.6351C140.947 93.6052 141.835 95.4083 141.653 96.0221L140.702 98.6787L139.945 100.507L139.307 101.738L138.755 103.299L138.169 104.728L136.996 107.586L136.661 108.665L136.479 109.278L136.12 110.787L135.745 111.453L134.179 115.688L133.792 116.569L133.504 117.564L133.369 118.094L133.023 118.612L132.824 119.16C132.701 119.475 132.629 119.988 132.489 120.238L131.861 122.031L131.491 122.978L130.789 124.227L130.466 125.091C130.437 125.24 130.454 125.306 130.471 125.371L129.89 127.081L129.573 128.225L129.087 128.992C128.488 130.636 127.912 132.627 127.378 134.253C127.043 135.332 126.644 136.428 126.292 137.44L126.203 137.887L126.033 138.286C125.664 139.233 125.411 140.36 124.987 141.886L124.916 142.399C124.939 142.745 124.798 142.995 124.774 143.425L124.42 145.214L124.435 146.056L124.092 148.406C124.067 148.835 124.045 148.489 124.021 148.919L123.759 151.317C123.828 151.58 123.752 151.813 123.838 152.142L124.031 152.089L124.569 151.52L124.914 151.002L125.434 150.367L125.651 149.885L125.95 149.451L126.786 148.448L126.961 148.329L127.417 147.711L128.966 146.02L129.329 145.569L129.534 145.301L129.955 144.552L130.066 144.451C130.335 144.166 130.569 143.75 130.838 143.465L130.791 143.548L132.283 141.379L133.593 139.823L134.622 138.768L134.75 138.733C135.224 138.18 135.458 137.764 135.791 137.462L136.218 136.993L137.165 135.889L138.539 134.316L139.03 133.829L140.513 132.932L140.77 132.862C141.774 132.235 143.139 131.934 144.497 132.128C146.537 132.56 146.447 133.783 146.332 135.436C146.284 136.296 146.072 137.059 146.036 137.703C146.041 137.984 146.029 138.199 145.97 138.497C145.857 139.374 145.722 139.904 145.668 140.483L145.401 142.601Z" fill="#FBCFB9"/>
<path id="Vector_12" d="M106.84 143.021L106.257 142.898L106.064 142.95L105.056 142.52L104.555 142.445L103.325 142.216C103.197 142.251 103.162 142.119 103.098 142.136L102.696 142.176L102.019 142.219L101.402 141.964L101.174 141.885L100.283 141.634L98.3417 141.317L97.2749 141.184L95.7067 140.977L95.561 140.946L94.2202 140.817L92.8498 140.838L92.2028 140.732L91.7483 140.574L90.9382 140.372L89.5627 140.112L89.3528 140.098L87.5869 139.663C87.3128 139.667 86.73 139.543 86.4386 139.482L84.7248 139.243L82.7715 139.141L80.912 138.872L80.2008 138.783L79.1757 138.287L78.5408 137.966L77.4046 137.571L76.8218 137.447L75.2658 137.025L74.683 136.902C74.5373 136.871 74.4558 136.822 74.3916 136.84L73.9076 136.831L73.2432 136.659L72.4453 136.242L72.3811 136.259L71.5659 135.776L71.0247 135.289L70.6986 135.096L70.0637 134.775L69.8018 134.564L69.4584 134.305L69.0802 133.915L68.7541 133.721L68.5685 133.278L68.2424 133.085L67.9701 132.313L67.7204 131.887L67.4082 130.703L67.4203 130.488L67.3232 129.598L67.436 128.721L67.6078 127.546L67.79 126.932L67.9427 126.468L68.5637 125.17L68.8743 124.521L69.478 123.158L70.413 122.269L70.7114 121.835L71.9743 120.362L72.4826 119.942L72.5763 119.775L74.1826 118.562L74.5452 118.111L76.0527 116.783L76.9113 116.126L78.2731 114.768L79.3192 113.778L79.4302 113.677L81.5916 111.96L81.831 111.824L82.2456 111.57L82.485 111.435L82.6429 111.251L83.4079 110.76L83.9335 110.405L84.3949 110.068L85.977 109.285L86.7298 109.009C87.0976 108.838 87.4307 108.536 87.7984 108.365C88.0378 108.23 88.3709 107.927 88.5461 107.809L89.3458 107.45L90.5774 106.903L91.6806 106.391L91.92 106.255L92.7197 105.896L93.8057 105.319L94.6227 105.025L95.2003 104.868L95.6843 104.877L96.3261 104.702L97.02 104.725C97.4224 104.686 98.099 104.643 98.6003 104.718L99.02 104.744C99.6376 104.999 100.354 105.368 100.883 106.07L101.017 106.316L101.365 106.856L101.487 107.316L101.566 108.141L101.757 108.864L101.837 109.689L102.01 110.347L101.169 111.07L100.364 111.148L99.4204 110.7L98.4716 109.971L98.1351 109.216L97.6928 108.843L97.2679 108.536C97.1395 108.571 96.9296 108.558 96.8654 108.575L96.2184 108.469L95.1689 108.403C94.9122 108.472 94.5566 108.428 94.2999 108.498L93.0631 108.765L92.2339 109.273L91.1948 109.767L90.2494 110.095L88.8772 110.892C88.2527 111.133 87.4704 111.557 86.8459 111.798L86.2388 112.105C85.8068 112.293 85.4738 112.595 85.106 112.766L83.9264 113.51C82.7468 114.255 81.7893 114.798 80.4865 115.858L79.7735 116.545L79.4456 117.128L78.9842 117.466L77.9624 118.026L74.5207 121.15L73.9535 121.868L72.4616 124.038C71.9637 125.02 71.4068 126.3 71.2593 127.045L71.117 128.071L70.7943 128.935L70.7058 129.382C70.7405 129.513 70.8567 129.693 70.8914 129.825L71.1533 130.036L71.6234 131.036L71.9373 131.444L72.4958 131.997C72.5947 132.111 72.7578 132.208 72.9035 132.239L73.4915 132.642L73.6251 132.888C73.8228 133.116 74.1489 133.31 74.3466 133.538L75.063 133.907L75.5817 134.048L76.1177 134.254L76.6363 134.395L77.8072 134.922L78.9902 135.235L80.3241 135.859L80.7612 135.951C80.9711 135.964 81.181 135.978 81.3736 135.925L82.5098 136.321L83.757 136.616C83.8853 136.581 84.031 136.612 84.0952 136.594L85.1794 136.792L86.4734 137.004L89.6322 137.766L89.6963 137.748L91.3633 138.07L91.7189 138.114L92.5463 138.382L95.0702 138.823L95.8925 138.81L96.7789 138.781L97.811 138.781L99.0755 139.142L100.305 139.371L102.375 139.654L103.279 139.69L103.879 139.879L104.625 140.099L105.452 140.367L106.973 140.658L108.186 140.821L109.771 141.094C109.917 141.125 110.255 141.103 110.319 141.086L110.873 141.358L111.461 141.762L111.77 141.89L112.078 142.017L112.824 142.237C113.069 142.382 113.343 142.378 113.489 142.409C113.99 142.484 114.217 142.563 114.753 142.769L114.98 142.849L115.953 143.148L117.019 144.056C117.117 144.17 117.315 144.399 117.379 144.381L117.891 145.017L118.845 146.027L119.246 146.764C120.024 147.892 120.175 148.203 120.389 149.273C120.406 149.339 120.505 149.453 120.522 149.519L120.765 150.44L120.781 151.282L120.416 152.51C120.21 153.553 119.689 154.189 119.046 155.14L118.577 155.972C117.934 156.923 117.349 157.576 116.624 158.479C116.419 158.746 116.091 159.329 115.998 159.496L115.489 159.916L115.297 159.969L111.796 163.391L111.668 163.426L109.827 165.055L109.295 165.906L109.008 166.125L107.355 167.421L105.883 168.88L104.989 169.405L103.062 170.706L100.347 172.151L97.4328 174.144L95.2488 175.514L94.5948 175.904L94.1628 176.092L94.005 176.276L92.4576 177.191L90.9623 178.304L90.1331 178.812L88.5563 179.876L87.4183 180.257L85.8415 181.321L81.8482 183.396L76.5521 186.531L73.5338 188.129L70.9369 188.977L67.6636 189.869C66.9749 190.127 66.321 190.517 65.6965 190.757L63.934 191.379C61.8038 192.17 59.3996 192.966 57.2347 193.627L57.0126 193.828L56.3882 194.069L53.5815 194.904L53.3247 194.974L52.525 195.333L49.4737 196.023L48.0496 196.622L47.4546 196.714L45.8916 196.787C45.5707 196.875 45.2151 196.83 44.9584 196.9L43.9436 196.965L43.3955 196.974L42.4327 197.236L41.581 197.397L41.3711 197.384L40.3737 197.515L38.8628 197.785L37.9937 197.881L34.8627 197.747C34.7985 197.764 34.6528 197.733 34.6528 197.733L33.0725 197.741L32.7985 197.745L31.8895 197.428C30.2867 197.089 29.6397 196.983 28.6267 196.272L27.6831 195.824L26.7811 195.012L25.9555 193.967L25.8219 193.722L25.3622 193.283L24.6702 192.484L24.2053 191.764L24.1012 191.37L23.8515 190.944L23.7474 190.549L23.6902 190.071L23.7388 189.212C23.7215 189.146 23.751 188.997 23.7336 188.931L23.7111 188.585L23.8464 188.054C23.8412 187.773 23.9176 187.541 24.1518 187.125L24.4328 186.625L24.7312 186.191L25.2117 185.144C25.4754 184.578 26.0844 183.495 26.4296 182.978L28.7993 179.442L29.5244 178.539L29.8991 177.873L30.2912 177.272L31.2852 176.085L32.3486 175.16L32.7927 174.757L33.2246 174.569L34.1579 174.456L34.3833 175.311L34.359 175.741L33.9843 176.407L33.0961 177.213C32.8741 177.415 32.9261 177.612 32.5289 177.932L32.0553 178.484L31.9443 178.585L31.6632 179.085L31.207 179.702L30.5165 180.737L30.0134 181.438L29.6335 181.823L29.5572 182.056L29.3525 182.323L28.9483 183.138L28.4799 183.971L27.5726 185.488C27.2031 186.435 26.9029 187.645 26.8421 188.719L26.7762 189.513C26.764 189.728 26.8212 190.206 26.8559 190.337L26.9947 190.863L27.3485 191.684L27.5983 192.109L27.9296 192.583L28.5054 193.202L28.75 193.347L29.7578 193.778L30.946 194.371L31.6798 194.806L32.018 194.784C32.1464 194.749 32.2921 194.78 32.3563 194.762L32.7934 194.855L34.0233 195.084L34.5766 195.356L34.6408 195.339L36.8334 195.306L37.7371 195.342L38.3841 195.447L38.5125 195.412C40.2038 195.304 41.9419 195.113 43.7096 194.772C43.7737 194.755 43.8553 194.803 43.9195 194.786L45.1563 194.519L45.5414 194.414C45.6056 194.397 45.6229 194.463 45.8796 194.393L46.4399 194.17L46.714 194.166L47.0176 194.012L47.852 193.785L48.2076 193.829L48.5111 193.676L49.1703 193.567L51.8018 192.85L52.7472 192.522L53.0213 192.518L55.3614 191.739L56.0969 191.398L56.8619 190.907L57.7136 190.746L58.3086 190.654L60.1179 189.95L60.5672 189.828L61.6236 189.399L62.1492 189.044L63.8006 188.524L64.6003 188.165L66.7773 187.29L69.0012 186.331L69.6257 186.091L70.297 185.767L71.7732 185.365L75.7197 183.373L77.0918 182.576L77.5237 182.388L78.2887 181.897L79.2983 181.552L80.9914 180.667L81.8674 180.076L85.0853 177.93L87.5659 176.902L88.7455 176.158L90.848 174.739L91.2331 174.634L93.5454 173.228L94.1474 172.641L95.164 171.8L95.5144 171.563L96.203 171.305L98.0366 170.171L98.5449 169.751L99.7713 168.923L100.134 168.472L101.57 167.657L102.365 167.018L104.467 165.599L106.705 163.649L107.12 163.395L107.786 162.791L109.259 161.332L109.609 161.095L110.339 160.473L111.706 159.396L112.244 158.826L112.594 158.589C112.91 158.221 113.448 157.652 113.699 157.301L114.144 156.898L114.711 156.179L114.974 155.614L115.379 154.799L116.01 154.063L116.39 153.677C117.075 152.362 117.188 151.485 117.091 150.595C117.074 150.529 117.115 150.165 117.098 150.099L116.744 149.279L116.402 148.244C116.321 148.195 116.222 148.081 116.222 148.081L116.106 147.901L115.402 147.318L113.743 145.724C113.027 145.355 111.821 144.696 110.994 144.428L109.322 143.826L108.867 143.668L107.148 143.149L106.84 143.021Z" fill="#FBCFB9"/>
</g>
</g>
<defs>
<clipPath id="clip0_0_1">
<rect width="1440" height="1024" fill="white" transform="translate(-150.484)"/>
</clipPath>
</defs>
</svg>
