<svg preserveAspectRatio="none" width="100%" height="100%" overflow="visible" style="display: block;" viewBox="0 0 30.8056 7.56989" fill="none" xmlns="http://www.w3.org/2000/svg">
<g id="Here&#226;&#128;&#153;s your">
<path id="Vector" d="M30.8056 1.44282L30.7076 2.92517C30.6236 2.83623 30.5046 2.78682 30.3786 2.78682C30.0146 2.78682 29.8256 3.07341 29.7486 3.74541V6.47294H28.6076V1.40329H29.5946L29.6366 2.09506H29.6506C29.8536 1.49223 30.1056 1.31435 30.4346 1.31435C30.5816 1.31435 30.7216 1.36376 30.8056 1.44282Z" fill="var(--fill-0, black)"/>
<path id="Vector_2" d="M26.8532 5.01036V1.4033H27.9942V6.47295H26.9792L26.9442 6.08753H26.9302C26.6992 6.42353 26.3982 6.57177 26.0272 6.57177C25.3412 6.57177 24.9352 5.83059 24.9352 4.55577V1.4033H26.0762V4.56565C26.0762 5.0993 26.2022 5.29694 26.4332 5.29694C26.6292 5.29694 26.7692 5.17836 26.8532 5.01036Z" fill="var(--fill-0, black)"/>
<path id="Vector_3" d="M24.4938 3.21177V4.67436C24.4938 5.68236 23.9828 6.57177 22.9468 6.57177C21.9178 6.57177 21.4068 5.69224 21.4068 4.67436V3.21177C21.4068 2.20377 21.9178 1.30447 22.9468 1.30447C24.0038 1.30447 24.4938 2.17412 24.4938 3.21177ZM22.5548 3.28095V4.5953C22.5548 5.15859 22.6948 5.36612 22.9468 5.36612C23.2268 5.36612 23.3528 5.15859 23.3528 4.5953V3.28095C23.3528 2.72753 23.2268 2.51012 22.9468 2.51012C22.6738 2.51012 22.5548 2.72753 22.5548 3.28095Z" fill="var(--fill-0, black)"/>
<path id="Vector_4" d="M21.2807 1.4033L20.0767 5.86024C19.7337 7.13506 19.2787 7.54024 18.3967 7.56989L18.3337 6.46306C18.7117 6.41365 18.9007 6.26542 19.0197 5.82071L19.0407 5.73177L17.7107 1.4033H18.9777L19.5937 4.12095H19.6077L20.1047 1.4033H21.2807Z" fill="var(--fill-0, black)"/>
<path id="Vector_5" d="M16.306 2.52989L15.627 2.93506C15.508 2.52 15.291 2.43106 15.095 2.43106C14.885 2.43106 14.801 2.53977 14.801 2.7473C14.801 3.38965 16.334 3.26118 16.334 4.95106C16.334 5.86024 15.788 6.57177 15.011 6.57177C14.367 6.57177 13.94 6.20612 13.674 5.376L14.374 4.86212C14.521 5.27718 14.78 5.45506 14.976 5.45506C15.172 5.45506 15.256 5.35624 15.256 5.10918C15.256 4.38777 13.716 4.56565 13.716 2.87577C13.716 1.98636 14.199 1.30447 15.046 1.30447C15.669 1.30447 16.082 1.71953 16.306 2.52989Z" fill="var(--fill-0, black)"/>
<path id="Vector_6" d="M12.902 1.2055V0.00973862H13.728V0.829974C13.728 1.42292 13.595 1.90715 13.28 2.25303L13.028 1.95656C13.14 1.79844 13.231 1.59092 13.238 1.30433L12.902 1.2055Z" fill="var(--fill-0, black)"/>
<path id="Vector_7" d="M12.5605 4.2593H10.8175V4.58542C10.8175 5.13883 10.9645 5.36612 11.2795 5.36612C11.5175 5.36612 11.6575 5.208 11.7695 4.80283L12.5745 5.21789C12.3575 6.12706 11.9305 6.56189 11.1465 6.56189C10.1945 6.56189 9.66945 5.72189 9.66945 4.65459V3.20189C9.66945 2.20377 10.1525 1.30447 11.1465 1.30447C12.0775 1.30447 12.5605 2.20377 12.5605 3.27106V4.2593ZM10.8175 3.09318V3.36989H11.5595V3.09318C11.5595 2.64847 11.4265 2.48047 11.1885 2.48047C10.9225 2.48047 10.8175 2.65836 10.8175 3.09318Z" fill="var(--fill-0, black)"/>
<path id="Vector_8" d="M9.43642 1.44282L9.33842 2.92517C9.25442 2.83623 9.13542 2.78682 9.00942 2.78682C8.64542 2.78682 8.45642 3.07341 8.37942 3.74541V6.47294H7.23842V1.40329H8.22542L8.26742 2.09506H8.28142C8.48442 1.49223 8.73642 1.31435 9.06542 1.31435C9.21242 1.31435 9.35242 1.36376 9.43642 1.44282Z" fill="var(--fill-0, black)"/>
<path id="Vector_9" d="M6.7499 4.2593H5.0069V4.58542C5.0069 5.13883 5.1539 5.36612 5.4689 5.36612C5.7069 5.36612 5.8469 5.208 5.9589 4.80283L6.7639 5.21789C6.5469 6.12706 6.1199 6.56189 5.3359 6.56189C4.3839 6.56189 3.8589 5.72189 3.8589 4.65459V3.20189C3.8589 2.20377 4.3419 1.30447 5.3359 1.30447C6.2669 1.30447 6.7499 2.20377 6.7499 3.27106V4.2593ZM5.0069 3.09318V3.36989H5.7489V3.09318C5.7489 2.64847 5.6159 2.48047 5.3779 2.48047C5.1119 2.48047 5.0069 2.65836 5.0069 3.09318Z" fill="var(--fill-0, black)"/>
<path id="Vector_10" d="M0 0H1.225V2.44094H2.093V0H3.318V6.47294H2.093V3.93318H1.225V6.47294H0V0Z" fill="var(--fill-0, black)"/>
</g>
</svg>
