<svg preserveAspectRatio="none" width="100%" height="100%" overflow="visible" style="display: block;" viewBox="0 0 31 5.08901" fill="none" xmlns="http://www.w3.org/2000/svg">
<g id="090-1234-5678">
<path id="Vector" d="M29.7895 5.08901C29.0343 5.08901 28.579 4.62775 28.579 3.52374C28.579 3.00199 28.7236 2.60878 29.0182 2.39705V2.38193C28.7665 2.18533 28.6701 1.82237 28.6701 1.3611C28.6701 0.589811 28.9807 0 29.7895 0C30.5983 0 30.9143 0.589811 30.9143 1.3611C30.9143 1.82237 30.8125 2.18533 30.5608 2.38193V2.39705C30.8554 2.60878 31 3.00199 31 3.52374C31 4.62775 30.5501 5.08901 29.7895 5.08901ZM30.1323 3.46325C30.1323 3.0398 30.0412 2.91881 29.7895 2.91881C29.5378 2.91881 29.4467 3.0398 29.4467 3.46325C29.4467 3.93964 29.5699 4.07575 29.7895 4.07575C30.0037 4.07575 30.1323 3.96988 30.1323 3.46325ZM29.7895 0.99058C29.5645 0.99058 29.4735 1.10401 29.4735 1.48965C29.4735 1.94335 29.5592 2.04165 29.7895 2.04165C30.0252 2.04165 30.1055 1.94335 30.1055 1.48965C30.1055 1.10401 30.0198 0.99058 29.7895 0.99058Z" fill="var(--fill-0, black)"/>
<path id="Vector_2" d="M27.2672 5.02096H26.303L27.476 1.15693H26.062V0.0680524H28.4241V1.05107L27.2672 5.02096Z" fill="var(--fill-0, black)"/>
<path id="Vector_3" d="M24.7542 0C25.2684 0 25.6755 0.385646 25.8361 1.17962L25.2362 1.53502C25.1505 1.17962 25.0166 1.04351 24.8077 1.04351C24.4864 1.04351 24.3793 1.30817 24.3793 1.70894V2.05678H24.39C24.5292 1.92823 24.7113 1.85261 24.9309 1.85261C25.5951 1.85261 25.8843 2.40462 25.8843 3.31202C25.8843 4.52945 25.4451 5.08901 24.6953 5.08901C23.9133 5.08901 23.5223 4.4009 23.5223 3.37251V1.88286C23.5223 0.8091 24.015 0 24.7542 0ZM24.7274 2.84319C24.4703 2.84319 24.3846 2.94149 24.3793 3.07761V3.52374C24.3793 3.84134 24.4917 4.03038 24.722 4.03038C24.9309 4.03038 25.022 3.87158 25.022 3.35739C25.022 2.9793 24.9417 2.84319 24.7274 2.84319Z" fill="var(--fill-0, black)"/>
<path id="Vector_4" d="M21.5223 2.96418L20.9813 2.60878L21.1152 0.0680524H23.1291L23.0648 1.15693H21.8168L21.7847 1.92067C21.9347 1.84505 22.1061 1.79968 22.2721 1.79968C22.9363 1.79968 23.2362 2.40461 23.2362 3.34982C23.2362 4.4992 22.8452 5.08901 22.0204 5.08901C21.4419 5.08901 21.0188 4.68824 20.8795 3.8867L21.5383 3.55399C21.608 3.90939 21.774 4.09087 21.9668 4.09087C22.2561 4.09087 22.3203 3.87158 22.3203 3.36495C22.3203 2.96418 22.1971 2.81294 21.924 2.81294C21.7794 2.81294 21.6294 2.87344 21.5223 2.96418Z" fill="var(--fill-0, black)"/>
<path id="Vector_5" d="M19.3746 3.3347V2.27607H20.6012V3.3347H19.3746Z" fill="var(--fill-0, black)"/>
<path id="Vector_6" d="M18.8239 5.02096H18.0258V4.15136H16.5475V3.31958L17.9615 0.0680524H18.8239V3.1759H19.1506L19.097 4.15136H18.8239V5.02096ZM17.4259 3.1759H18.0365L18.0686 1.48965H18.0579L17.4259 3.1759Z" fill="var(--fill-0, black)"/>
<path id="Vector_7" d="M14.762 2.96418V2.05678H15.0405C15.2869 2.05678 15.4048 1.89798 15.4048 1.54258C15.4048 1.18718 15.3137 1.03595 15.0995 1.03595C14.8691 1.03595 14.7299 1.17206 14.6388 1.58039L13.9961 1.25524C14.1353 0.514195 14.5478 0 15.1852 0C15.9672 0 16.3046 0.665428 16.3046 1.3611C16.3046 1.86017 16.1761 2.26094 15.8654 2.44999V2.46511C16.1975 2.60878 16.3635 2.99443 16.3635 3.56911C16.3635 4.58994 15.8815 5.08901 15.1584 5.08901C14.521 5.08901 14.13 4.70337 13.9693 3.88671L14.6174 3.54643C14.7031 3.90939 14.8531 4.09087 15.0941 4.09087C15.3351 4.09087 15.4476 3.88671 15.4476 3.48594C15.4476 3.10029 15.3191 2.96418 15.0566 2.96418H14.762Z" fill="var(--fill-0, black)"/>
<path id="Vector_8" d="M12.6439 0C13.4313 0 13.758 0.680552 13.758 1.40647C13.758 3.07761 12.6385 3.12298 12.435 4.02282H13.7419V5.02096H11.4602L11.4495 4.4992C11.4923 2.91125 12.8796 2.28363 12.8796 1.46697C12.8796 1.19475 12.7885 1.05107 12.5636 1.05107C12.3547 1.05107 12.1726 1.28549 12.0976 1.74675L11.4173 1.4216C11.578 0.604935 11.9797 0 12.6439 0Z" fill="var(--fill-0, black)"/>
<path id="Vector_9" d="M10.2813 0.0378077H11.0151V5.02096H10.0992V1.82993H9.41357V0.960333H9.6921C10.0992 0.960333 10.2063 0.793976 10.2813 0.0378077Z" fill="var(--fill-0, black)"/>
<path id="Vector_10" d="M8.0188 3.3347V2.27607H9.24537V3.3347H8.0188Z" fill="var(--fill-0, black)"/>
<path id="Vector_11" d="M7.69225 1.79212V3.29689C7.69225 4.37821 7.26911 5.08901 6.50853 5.08901C5.73724 5.08901 5.32481 4.37821 5.32481 3.29689V1.79968C5.32481 0.710798 5.73724 0 6.50853 0C7.26911 0 7.69225 0.710798 7.69225 1.79212ZM6.1818 1.79212V3.29689C6.1818 3.86402 6.27286 4.03794 6.50853 4.03794C6.73884 4.03794 6.83525 3.86402 6.83525 3.29689V1.79212C6.83525 1.25524 6.73884 1.08888 6.50853 1.08888C6.27286 1.08888 6.1818 1.25524 6.1818 1.79212Z" fill="var(--fill-0, black)"/>
<path id="Vector_12" d="M3.23495 3.51618C3.34207 3.91695 3.48669 4.06819 3.72772 4.06819C4.03302 4.06819 4.15086 3.85646 4.15086 3.41788V2.99443H4.14015C4.01695 3.12298 3.85091 3.19103 3.63666 3.19103C3.03677 3.19103 2.64041 2.72221 2.64041 1.69382C2.64041 0.597373 3.06891 0 3.83484 0C4.6222 0 5.00785 0.748607 5.00785 1.60308V3.34226C5.00785 4.41602 4.55257 5.08901 3.78128 5.08901C3.21888 5.08901 2.83859 4.71093 2.67255 3.96232L3.23495 3.51618ZM3.80806 2.21557C3.96875 2.21557 4.15086 2.15508 4.15086 1.89042V1.53502C4.15086 1.1645 4.05445 1.05864 3.82413 1.05864C3.60453 1.05864 3.50812 1.20987 3.50812 1.64845C3.50812 2.10215 3.59917 2.21557 3.80806 2.21557Z" fill="var(--fill-0, black)"/>
<path id="Vector_13" d="M2.36744 1.79212V3.29689C2.36744 4.37821 1.9443 5.08901 1.18372 5.08901C0.412427 5.08901 0 4.37821 0 3.29689V1.79968C0 0.710798 0.412427 0 1.18372 0C1.9443 0 2.36744 0.710798 2.36744 1.79212ZM0.856991 1.79212V3.29689C0.856991 3.86402 0.948046 4.03794 1.18372 4.03794C1.41403 4.03794 1.51045 3.86402 1.51045 3.29689V1.79212C1.51045 1.25524 1.41403 1.08888 1.18372 1.08888C0.948046 1.08888 0.856991 1.25524 0.856991 1.79212Z" fill="var(--fill-0, black)"/>
</g>
</svg>
