<svg width="96" height="96" viewBox="0 0 96 96" fill="none" xmlns="http://www.w3.org/2000/svg">
<g id="Play">
<g id="icon">
<rect width="96" height="96" rx="18" fill="black"/>
<g id="foreground">
<path id="Vector 140" d="M12.4135 16.1201C12.4578 16.1201 12.5986 16.1201 12.7073 16.1348C12.8618 16.1557 12.1922 16.3448 11.7481 16.6402C11.285 16.9483 10.1836 18.1257 8.52316 19.9941C7.06174 21.6386 6.2657 23.0795 5.71358 24.092C4.76819 25.8257 4.66893 26.7271 4.57723 27.5209C4.56029 28.0393 4.60444 28.4841 4.7195 28.8001C4.78661 28.9548 4.87144 29.0978 4.95884 29.2451" stroke="#91F700" stroke-width="1.5" stroke-linecap="round" stroke-linejoin="round"/>
<path id="Vector 141" d="M12.0737 23.4353C12.0737 23.4317 12.0737 23.428 12.0007 23.4516C11.9276 23.4751 11.7815 23.5259 11.6167 23.681C11.2729 24.0938 10.6026 25.325 9.77696 27.0186C9.43716 27.7466 9.25816 28.2076 9.07373 28.6826" stroke="#91F700" stroke-width="1.5" stroke-linecap="round" stroke-linejoin="round"/>
<path id="Vector 142" d="M85.1183 61.4951C85.1283 61.4951 85.1384 61.4951 85.1921 61.52C85.2458 61.5449 85.3429 61.5946 85.3862 61.6947C85.3287 62.4686 85.0218 63.7722 84.7416 64.727C84.6187 65.1311 84.535 65.372 84.4487 65.6201" stroke="#91F700" stroke-width="1.5" stroke-linecap="round" stroke-linejoin="round"/>
<path id="Vector 143" d="M91.2936 57.7451C91.3012 57.7451 91.3087 57.7451 91.3582 57.7855C91.4076 57.8259 91.4987 57.9067 91.5456 58.1577C91.5925 58.4086 91.5925 58.8272 91.454 59.7002C91.3155 60.5732 91.0386 61.8879 90.3003 64.0542C89.562 66.2205 88.3708 69.1987 87.6793 70.8853C86.5127 73.4551 86.0337 74.2123 85.7278 74.6324C85.5775 74.8322 85.4371 75.0048 85.2925 75.1826" stroke="#91F700" stroke-width="1.5" stroke-linecap="round" stroke-linejoin="round"/>
<g id="Group 3">
<path id="Vector 137" d="M45.327 41.0574C45.2404 41.0763 44.1973 41.1854 43.1667 41.4042C41.1255 41.8373 40.3529 42.5199 39.1137 43.3418C37.953 44.1117 37.1953 44.8052 36.9115 45.1043C36.0771 45.9837 34.7691 47.6681 33.8159 48.9424C33.353 49.5613 33.1274 50.0695 33.0176 50.3177C32.8027 50.8033 32.6651 52.129 32.6146 53.3088C32.5688 54.3802 33.0041 55.3911 33.3198 56.2584C33.6064 57.0462 34.8642 58.9992 35.7533 60.2944C36.4105 61.2518 37.15 61.6478 37.8264 62.1978C39.3713 63.4539 40.3618 63.6839 41.2355 64.0964C41.8125 64.3688 43.0319 64.4294 44.1795 64.5747C45.2448 64.7095 46.0854 64.8085 47.6272 64.7572C48.8791 64.7157 50.1077 64.6779 50.9329 64.5887C51.4041 64.5377 51.9461 64.3637 52.6964 64.1137C54.1004 63.6459 55.026 62.7431 55.8035 61.9816C56.9862 60.8235 57.7992 59.8015 58.1378 59.4307C59.0839 58.3945 60.0696 56.766 60.5548 56.0239C61.0191 55.3138 61.4505 53.6714 61.7143 52.5093C61.8111 52.0823 61.6719 50.4578 61.4886 48.278C61.4231 47.4994 61.3883 47.388 61.2769 47.1394C60.5725 45.567 59.761 44.3949 59.2954 43.8996C58.2934 42.8334 56.5621 41.9727 55.7055 41.6119C54.6881 41.1835 53.7223 40.9737 53.2098 40.867C52.8011 40.7819 51.8274 40.76 50.5632 40.7191C49.08 40.6712 47.1782 40.3835 45.7568 40.47C44.2916 40.5591 42.2804 40.8614 42.0564 40.9374C41.3844 41.3655 40.2461 42.3107 39.6744 42.9925C39.5676 43.1431 39.4868 43.2723 39.3006 43.6275" stroke="#91F700" stroke-width="1.5" stroke-linecap="round" stroke-linejoin="round"/>
<path id="Vector 138" d="M39.9974 46.0173C39.9524 46.1287 39.5505 46.6186 39.2214 47.0824C39.0625 47.3062 38.9654 47.602 38.875 47.9006C38.8312 48.045 38.8162 48.1817 38.8117 48.3227C38.8073 48.4637 38.8202 48.6066 38.8658 48.7433C38.9113 48.8799 38.9892 49.006 39.0714 49.1077C39.1536 49.2095 39.2378 49.2832 39.3299 49.3482C39.4219 49.4132 39.5191 49.4673 39.6346 49.504C39.8752 49.5805 40.1772 49.5623 40.495 49.5152C41.1237 49.422 41.581 48.9556 41.9853 48.6131C42.2877 48.357 42.5228 48.0864 42.6724 47.8868C42.7473 47.7868 42.7987 47.6745 42.8416 47.5452C42.9314 47.2751 42.9443 46.9997 42.9427 46.7338C42.9419 46.5865 42.9216 46.4143 42.8711 46.285C42.8207 46.1557 42.7358 46.0747 42.6219 46.0134C42.3814 45.8839 42.0629 45.8539 41.7273 45.8264C41.3689 45.7969 40.9761 45.8395 40.6082 45.8911C40.3087 45.9332 40.0136 46.1343 39.6881 46.3665C39.5373 46.4869 39.4156 46.6124 39.3053 46.7424C39.1949 46.8723 39.0995 47.0029 38.9446 47.2545" stroke="#91F700" stroke-width="1.5" stroke-linecap="round" stroke-linejoin="round"/>
<path id="Vector 139" d="M70.1831 28.7833C70.0455 28.8143 68.4581 28.9576 67.2934 29.0067C66.3471 29.0466 65.4731 29.0174 64.2963 29.1904C62.0193 29.525 61.1527 29.6119 60.5353 29.6993C59.8873 29.791 59.1221 29.9141 58.4511 30.0234C58.2934 30.0491 58.181 30.0737 58.0782 30.1201C57.9754 30.1666 57.8854 30.2338 57.8108 30.3246C57.6575 30.5113 57.5871 30.7499 57.5249 30.9695C57.3769 31.4926 57.4391 32.2981 57.4835 33.104C57.578 34.8183 57.7144 35.3579 57.8125 35.8467C57.9085 36.3254 58.0137 36.7762 58.21 37.2201C58.2594 37.3318 58.3395 37.419 58.4302 37.4733C58.806 37.6982 59.6551 37.5334 60.5542 37.5069C61.9 37.4673 63.3081 37.3838 65.0201 37.2351C66.0123 37.1489 66.8056 37.2068 67.4575 37.1109C68.0468 37.0243 68.7211 36.8514 69.5598 36.6922C70.7067 36.4744 71.4449 36.1732 71.6645 36.0474C71.77 35.987 71.8371 35.8926 71.9002 35.7379C72.2251 34.9406 72.2357 34.0116 72.2483 32.8622C72.2698 30.9024 71.818 29.894 71.5823 29.1668C71.5397 29.0356 71.4284 28.9201 71.3314 28.8197C71.2343 28.7193 71.1318 28.6472 71.0168 28.5972C70.9019 28.5472 70.7777 28.5214 70.6307 28.5101C70.4838 28.4987 70.3179 28.5026 70.0034 28.5252C69.6889 28.5479 69.2308 28.5892 68.7588 28.6317" stroke="#91F700" stroke-width="1.5" stroke-linecap="round" stroke-linejoin="round"/>
<path id="Vector 144" d="M19.8443 34.3503C19.7511 34.4621 19.3395 35.02 18.7764 36.0758C18.3301 36.9126 18.0939 37.8525 17.9852 38.4783C17.9385 38.7469 17.981 39.1408 18.0316 39.5798C18.0665 39.8816 18.1845 40.1204 18.305 40.3628C18.414 40.5823 18.5631 40.7623 18.7218 40.9342C19.0919 41.3349 19.875 41.6951 20.5723 41.9587C20.9207 42.0904 21.2819 42.0784 21.6567 42.0726C22.1851 42.0645 22.652 41.9629 22.9742 41.8613C23.6581 41.6457 24.1835 41.2026 24.6589 40.7997C25.3117 40.2463 25.6435 39.5944 26.0415 38.7677C26.3276 38.1731 26.3967 37.6213 26.4427 37.284C26.4915 36.9262 26.4421 36.5055 26.3795 36.0974C26.3513 35.914 26.2742 35.7893 26.1867 35.6677C26.0081 35.4194 25.7779 35.2535 25.5307 35.1084C25.1972 34.9125 24.7693 34.7734 24.3288 34.6547C23.4339 34.4137 22.7747 34.5454 22.3979 34.6015C22.0982 34.6462 21.8624 34.8248 21.6126 34.985C21.0938 35.3177 20.7608 35.7628 20.4679 36.1852C20.3177 36.4017 20.2808 36.6653 20.2614 36.9053C20.2514 37.0286 20.2799 37.1567 20.3359 37.2645C20.3919 37.3722 20.4845 37.4563 20.5859 37.5225C20.6874 37.5886 20.7949 37.6344 20.9233 37.668C21.5887 37.8423 22.2726 37.6667 22.5488 37.5936C22.8469 37.5146 23.9733 36.8056 25.6949 35.7075C26.919 34.9268 27.8586 34.0245 28.827 33.0547C29.6764 32.1177 30.3571 31.286 30.8268 30.6861C31.0187 30.4475 31.1164 30.3426 30.9688 30.2121" stroke="#91F700" stroke-width="1.5" stroke-linecap="round" stroke-linejoin="round"/>
<path id="Vector 145" d="M28.2954 37.5643C28.2859 37.7021 28.0913 38.1814 27.8803 38.7457C27.7901 38.9868 27.776 39.2522 27.7683 39.5396C27.7644 39.6856 27.7833 39.8323 27.8425 39.9364C27.9018 40.0404 28.0067 40.0975 28.1277 40.1116C28.2487 40.1258 28.3826 40.0952 28.5156 40.0312C28.7917 39.8983 29.1042 39.5651 29.4597 39.1699C29.7612 38.8347 29.9543 38.4692 30.1194 38.1302C30.1975 37.9699 30.2315 37.8183 30.2564 37.6753C30.2813 37.5323 30.2877 37.3986 30.2511 37.2761C30.2145 37.1536 30.1346 37.0462 30.0344 36.9907C29.9341 36.9352 29.8158 36.9348 29.4599 36.9611C29.104 36.9875 28.514 37.0407 27.8404 37.1126" stroke="#91F700" stroke-width="1.5" stroke-linecap="round" stroke-linejoin="round"/>
<path id="Vector 146" d="M32.3154 36.4518C32.3164 36.4628 32.3174 36.4738 32.3687 36.51C32.42 36.5462 32.5216 36.6072 32.6424 36.5993C32.7632 36.5913 32.9001 36.5124 33.1392 36.3531C33.3782 36.1938 33.7152 35.9565 34.2432 35.6061" stroke="#91F700" stroke-width="1.5" stroke-linecap="round" stroke-linejoin="round"/>
<path id="Vector 147" d="M37.0768 33.6372C37.0841 33.6366 37.0109 33.7245 36.8487 33.9473C36.6373 34.2375 36.4564 34.7688 36.1752 35.6304C35.7651 36.8871 35.5566 38.1223 35.441 39.0523C35.3752 40.0001 35.3717 40.7206 35.4173 41.1247C35.4457 41.2975 35.485 41.4048 35.6908 41.6125" stroke="#91F700" stroke-width="1.5" stroke-linecap="round" stroke-linejoin="round"/>
<path id="Vector 148" d="M37.1005 33.5231C37.1011 33.5304 37.1655 33.425 37.3074 33.224C37.3768 33.1257 37.4749 33.0614 37.5885 32.9947C37.8293 32.8536 38.0882 32.7773 38.3676 32.7223C38.5339 32.6895 38.7546 32.6723 38.9243 32.6939C39.094 32.7155 39.2072 32.7829 39.2925 32.8707C39.3777 32.9584 39.4316 33.0644 39.477 33.1914C39.5723 33.4581 39.6013 33.7776 39.5931 34.0968C39.5854 34.3922 39.4312 34.6557 39.2675 34.9439C39.0626 35.305 38.812 35.6075 38.6146 35.8339C38.4356 36.0392 38.1858 36.2315 37.8744 36.431C37.1978 36.6983 36.8 36.8014 36.5719 36.8518C36.4561 36.8772 36.3401 36.9024 35.9976 36.9374" stroke="#91F700" stroke-width="1.5" stroke-linecap="round" stroke-linejoin="round"/>
<path id="Vector 149" d="M40.6806 34.3763C40.666 34.3776 40.79 34.3628 41.043 34.3196C41.278 34.2795 41.5023 34.1497 41.7519 34.0082C42.0272 33.8521 42.2459 33.6611 42.4445 33.4703C42.9612 32.9737 43.1472 32.4794 43.2503 32.1963C43.2994 32.0615 43.3147 31.9352 43.289 31.8285C43.2632 31.7218 43.189 31.6361 43.0842 31.5906C42.8613 31.4938 42.5219 31.5563 42.1895 31.6102C42.0414 31.6343 41.9458 31.7043 41.846 31.7824C41.3951 32.1351 40.9097 33.025 40.61 33.7088C40.5032 33.9527 40.5457 34.4521 40.6123 35.0483C40.6397 35.294 40.7136 35.416 40.7929 35.529C40.8722 35.6421 40.9697 35.7405 41.0802 35.8245C41.1907 35.9086 41.3113 35.9753 41.4285 36.0269C41.5457 36.0785 41.6559 36.1129 41.8541 36.1216C42.0524 36.1303 42.3352 36.1122 42.5344 36.0814C42.8405 36.0077 43.3193 35.7899 43.9614 35.4915C44.2349 35.3668 44.4022 35.2963 44.5745 35.2237" stroke="#91F700" stroke-width="1.5" stroke-linecap="round" stroke-linejoin="round"/>
<path id="Vector 150" d="M40.5461 30.3905C40.5611 30.3928 40.5761 30.3952 40.6341 30.4214C40.6921 30.4476 40.7927 30.4977 40.8833 30.5644C40.9739 30.631 41.0514 30.7127 41.2342 30.9444" stroke="#91F700" stroke-width="1.5" stroke-linecap="round" stroke-linejoin="round"/>
<path id="Vector 151" d="M45.7391 27.5259C45.7534 27.5209 45.7678 27.5159 45.8291 27.538C45.8904 27.5602 45.9983 27.6096 46.0555 27.694C46.1127 27.7785 46.116 27.8964 45.9908 29.0089C45.8656 30.1215 45.6118 32.2249 45.4733 33.4072C45.3119 34.7858 45.2954 35.1052 45.3017 35.2191C45.3277 35.6901 45.8697 34.1722 46.2998 33.6846C46.3967 33.5747 46.5301 33.5548 46.6214 33.6662C47.3694 34.5796 47.1555 35.9156 47.2444 36.1403C47.2897 36.2548 47.38 36.3498 47.4925 36.3967C47.6049 36.4437 47.7481 36.4344 47.9126 36.3901C48.267 36.2946 48.6277 36.0799 48.9632 35.8765C49.2338 35.69 49.4667 35.4856 49.6805 35.2541C49.7825 35.1361 49.8715 35.0172 49.9633 34.8948" stroke="#91F700" stroke-width="1.5" stroke-linecap="round" stroke-linejoin="round"/>
<path id="Vector 153" d="M61.8167 32.1333C61.8274 32.1423 61.8382 32.1513 61.8746 32.203C61.911 32.2548 61.9726 32.3489 62.0093 32.4518C62.046 32.5548 62.0558 32.6636 62.0413 32.8383" stroke="#91F700" stroke-width="1.5" stroke-linecap="round" stroke-linejoin="round"/>
<path id="Vector 154" d="M67.3708 31.4111C67.3741 31.4108 67.3774 31.4105 67.4053 31.4612C67.4332 31.5119 67.4856 31.6135 67.5185 31.7319C67.5514 31.8502 67.5633 31.9821 67.5755 32.118" stroke="#91F700" stroke-width="1.5" stroke-linecap="round" stroke-linejoin="round"/>
<path id="Vector 155" d="M66.0732 34.5502C66.0765 34.5499 66.0798 34.5496 66.0711 34.6003C66.0624 34.6509 66.0417 34.7525 65.9743 34.8399C65.9069 34.9272 65.7936 34.9973 65.6787 35.0518C65.457 35.1569 65.163 35.1964 64.8566 35.199C64.7216 35.1863 64.6281 35.1448 64.543 35.0819C64.4579 35.0191 64.3839 34.936 64.2651 34.7132" stroke="#91F700" stroke-width="1.5" stroke-linecap="round" stroke-linejoin="round"/>
<path id="Vector 156" d="M69.8433 23.3279C69.8438 23.3339 69.7644 23.3894 69.5538 23.4769C68.8927 23.7518 68.228 23.6408 67.8399 23.7156C67.7396 23.7349 67.6354 23.7221 67.5437 23.6925C67.3631 23.6341 67.2006 23.5086 66.9737 23.4318C66.3784 23.2303 65.4317 23.3597 64.8027 23.4316C64.2946 23.4896 63.8623 23.3373 63.37 23.314C62.3881 23.2676 61.7754 23.4182 61.5666 23.3597C61.0732 23.2216 60.8476 22.9292 60.6607 22.8441C60.5658 22.8009 60.4583 22.7875 60.3551 22.7813C60.252 22.775 60.1532 22.7839 60.0549 22.8139C59.5862 22.9568 59.1128 23.3067 58.7184 23.4008C58.312 23.4978 57.7774 23.3247 56.8022 23.4043C55.4378 23.5157 53.9041 23.662 52.9961 23.7228C52.3095 23.7687 51.7403 24.2849 51.2523 24.3952C50.7659 24.5051 50.2792 24.3361 49.7092 24.2499C49.1345 24.1628 48.3296 24.2549 47.6229 24.3185C46.9571 24.3784 46.378 24.6983 45.8842 24.8195C45.7638 24.849 45.6482 24.8501 45.5412 24.8371C45.4342 24.8241 45.3374 24.7875 45.2471 24.7377C44.8912 24.5413 44.6953 24.2995 44.5068 24.2312C44.33 24.1671 44.093 24.2039 43.841 24.2417C43.3401 24.3168 42.8563 24.6408 42.2544 24.8172C41.0786 25.1617 39.3281 25.1815 38.8557 25.3474C38.2287 25.5676 37.3336 25.5118 36.3187 25.4869C35.7813 25.4738 35.4031 25.5871 35.1513 25.7069C34.8159 25.8663 34.5611 26.05 34.383 26.1315C34.2038 26.2135 33.9215 26.2452 33.6002 26.259C33.1604 26.278 32.798 26.0515 32.3257 26.0128C31.5688 25.9508 31.0123 26.2418 29.4136 26.4122C28.9089 26.466 27.8234 26.3485 26.2899 26.2231C25.6883 26.1739 25.4415 26.2019 25.2715 26.2307C25.1014 26.2595 25.0146 26.3005 24.9275 26.3526C24.5288 26.591 24.2096 26.876 24.015 26.994C22.9047 27.6673 20.6086 27.4567 20.452 27.5907C20.3683 27.6623 20.3024 27.7693 20.2162 27.8464C20.1299 27.9235 20.0319 27.9746 19.9332 28.0007C19.8344 28.0268 19.7379 28.0265 19.6145 27.9952C19.491 27.964 19.3437 27.9018 19.2206 27.8816C19.0974 27.8614 19.0031 27.885 18.9164 27.9443C18.5381 28.2035 18.2835 28.625 18.0138 28.9865C17.8621 29.1899 17.7122 29.3634 17.5712 29.4841C17.2834 29.7304 16.8533 29.7582 16.4893 29.8517C16.4009 29.8744 16.3483 29.9761 16.3051 30.0777C16.2138 30.2926 16.1754 30.5346 16.0788 30.744C15.981 30.9562 15.7955 31.148 15.6347 31.3556C15.4958 31.5347 15.4866 31.7549 15.4487 31.9378C15.4301 32.0275 15.3352 32.0853 15.252 32.1299C15.1688 32.1745 15.0804 32.1975 15.0314 32.255C14.9284 32.3758 14.9314 32.5883 14.8237 32.7894C14.6848 33.0487 14.4839 33.2323 14.3749 33.3895C14.3202 33.4685 14.2882 33.5598 14.2647 33.6582C14.1569 34.1104 14.2875 34.6111 14.3065 34.9381C14.3203 35.1755 14.0121 35.6159 13.8053 36.0662C13.7641 36.156 13.7789 36.266 13.7875 36.3799C13.8356 37.0223 14.3666 37.7275 14.4743 38.1711C14.5006 38.2793 14.4703 38.3919 14.4377 38.4855C14.3756 38.6637 14.2344 38.8138 14.132 38.9947C13.9192 39.3708 13.9954 39.849 13.9636 40.4283C13.9269 41.0948 14.142 42.1295 14.3353 43.3285C14.5149 44.4425 14.7015 45.7713 14.9573 47.1406C15.2497 48.7055 15.3786 49.3604 15.6303 50.1424C15.685 50.3122 15.7027 50.4171 15.7183 50.5214C15.7339 50.6256 15.7431 50.7274 15.7111 50.8073C15.679 50.8871 15.6056 50.942 15.5571 51.0196C15.3317 51.3798 15.1505 51.9415 14.9041 52.4628C14.8 52.6829 14.8078 52.9247 14.8192 53.203C14.8485 53.9199 15.184 54.9201 15.4377 56.0984C15.6875 57.2585 15.515 57.9271 15.6277 59.4216C15.713 60.5522 16.4382 62.1184 16.8423 63.1203C17.0354 63.5989 17.101 64.0422 17.2425 64.4797C17.4243 65.0415 17.5194 65.5043 17.6519 66.0471C17.7704 66.5321 18.0046 66.9718 18.1734 67.389C18.3419 67.8055 18.6301 68.2749 19.0835 68.8272C19.25 69.03 19.4329 69.1643 19.6231 69.2856C19.7146 69.3439 19.805 69.3805 19.8963 69.4092C20.2709 69.5269 20.733 69.5073 21.153 69.613C21.5723 69.7186 22.0127 69.6456 23.301 69.5358C24.1481 69.4636 25.1733 69.151 26.3719 69.047C26.6083 69.0264 26.7321 69.0704 26.8584 69.1123C27.42 69.299 27.9399 69.8285 28.4014 70.0705C28.751 70.2539 29.3078 69.9704 30.0091 69.8047C30.43 69.7052 30.7887 69.7476 31.0309 69.788C31.5596 69.8763 32.1369 70.0581 32.63 70.1529C33.0755 70.2386 33.5115 70.4581 34.0546 70.7506C34.2907 70.8777 34.5073 70.9454 34.7069 70.9852C35.4483 71.1332 36.6346 70.903 38.1303 71.1237C39.05 71.2595 39.9595 71.043 41.3834 70.899C43.4291 70.6922 44.7577 70.4822 45.4556 70.5434C46.5578 70.6401 47.0696 70.7734 47.7382 70.7605C48.2742 70.7501 48.8364 70.791 49.3938 70.738C49.8286 70.6967 50.1601 70.3954 50.5315 70.2546C50.7099 70.187 51.0245 70.3217 51.7799 70.4973C53.5487 70.9083 54.292 70.7536 55.5361 70.6326C56.3922 70.5493 56.98 69.8355 57.5727 69.663C58.4762 69.4 59.0845 69.4558 59.529 69.3846C60.2059 69.2761 60.5589 68.8486 61.0027 68.7121C61.3848 68.5946 61.7941 68.5538 62.4903 68.4953C62.7625 68.4724 62.9664 68.5698 63.2104 68.5661C63.9977 68.5542 65.0572 68.2269 65.7651 68.0515C66.9958 67.7467 67.8043 67.6037 68.8031 67.4104C69.4467 67.2858 69.8866 67.4125 70.401 67.3682C70.8861 67.3265 71.4174 66.935 71.8794 66.7294C72.3759 66.5084 72.9409 66.3462 73.3846 66.0729C73.7237 65.8641 74.1134 65.7951 74.4569 65.577C74.7971 65.361 75.1483 65.1079 75.5068 64.888C75.8585 64.6722 76.1157 64.5387 76.2395 64.4092C76.37 64.2728 76.3484 64.0397 76.4362 63.8856C76.6195 63.564 76.984 63.3277 77.2363 63.0121C77.5469 62.6235 77.6575 61.9063 77.8292 61.4411C77.9656 61.0717 78.1731 60.8608 78.2614 60.7085C78.4504 60.3829 78.3962 59.9549 78.4663 59.5809C78.5018 59.3918 78.5417 59.2003 78.6138 59.0235C78.6845 58.8501 78.9641 58.6989 79.2658 58.419C79.5696 58.1373 79.4785 57.4937 79.5017 56.7844C79.5317 55.8636 79.292 55.3487 79.201 54.3423C79.1444 53.716 79.1736 53.1931 79.1598 52.6847C79.1345 51.755 79.1127 50.8257 78.9896 50.3342C78.8889 49.9324 78.8069 49.3593 78.8158 48.8372C78.829 48.0724 78.7454 46.6836 78.5835 45.81C78.5413 45.5825 78.3532 45.4352 78.2514 45.2848C77.7636 44.5646 77.9577 42.9431 77.8694 42.4033C77.826 42.1382 77.7188 41.1722 77.5709 39.8347C77.4649 38.876 77.2376 37.0175 77.0854 35.8328C77.048 35.542 76.9516 35.2969 76.9423 35.094C76.923 34.6725 77.0262 34.2702 76.9932 33.7974C76.965 33.3918 76.8742 32.8557 76.8674 32.3022C76.8572 31.4766 76.6013 31.0299 76.4337 30.6108C76.2918 30.2559 76.137 29.8703 76.0008 29.4264C75.8739 29.0125 75.6296 28.6299 75.4026 28.1763C75.0502 27.4721 74.7607 26.8566 74.4399 26.4169C74.1195 25.9777 73.7407 25.6595 73.5848 25.5305C73.2854 25.283 72.8454 25.2131 72.4244 25.0224C71.9685 24.8159 71.6359 24.6058 71.2724 24.4312C70.9115 24.2578 70.5707 24.0437 70.2266 23.8655C70.0553 23.7768 69.8479 23.7392 69.5766 23.7089C69.1965 23.6665 68.3743 23.7285 67.3443 23.8303C66.6562 23.9435 65.9518 24.0473 65.1992 24.1046C64.8891 24.1191 64.7248 24.1037 64.5555 24.0879" stroke="#91F700" stroke-width="1.5" stroke-linecap="round" stroke-linejoin="round"/>
</g>
</g>
</g>
</g>
</svg>
