<svg preserveAspectRatio="none" width="100%" height="100%" overflow="visible" style="display: block;" viewBox="0 0 30.8579 28.6221" fill="none" xmlns="http://www.w3.org/2000/svg">
<g id="PR">
<path id="Vector" d="M25.9599 28.6221L22.6119 17.5496H20.8139V28.6221H16.2569V9.53674e-07H23.1389C27.8199 9.53674e-07 29.7729 3.36988 29.7729 8.44659C29.7729 12.1666 28.7189 15.0113 26.6419 16.1492L30.8579 28.6221H25.9599ZM20.8139 5.16424V12.7793H23.0459C24.8129 12.7793 25.2779 11.3788 25.2779 8.928C25.2779 6.17082 24.7199 5.16424 23.0149 5.16424H20.8139Z" fill="var(--fill-0, black)"/>
<path id="Vector_2" d="M7.34703 9.53674e-07C11.439 9.53674e-07 13.764 3.58871 13.764 9.49694C13.764 15.3176 11.563 18.9064 7.65703 18.9064H4.55703V28.6221H3.24249e-05V9.53674e-07H7.34703ZM4.55703 5.208V14.0047H7.19203C8.61803 14.0047 9.23803 12.6918 9.23803 9.58447C9.23803 6.43341 8.61803 5.208 7.19203 5.208H4.55703Z" fill="var(--fill-0, black)"/>
</g>
</svg>
