<svg width="72" height="60" viewBox="0 0 72 60" fill="none" xmlns="http://www.w3.org/2000/svg">

<g id="top_opening_PC">

<path id="Union" d="M47.0078 10.0049C46.8688 10.005 46.7552 10.1121 46.7471 10.251L45.9912 23.4951C45.6669 29.1894 41.1214 33.7344 35.4258 34.0625L22.8867 34.7881H22.2676C22.1306 34.7882 22.0131 34.8934 22.0049 35.0303C21.9989 35.1774 22.1146 35.2968 22.2598 35.2969H22.8867L35.4258 36.0225C41.1213 36.3525 45.6667 40.8978 45.9912 46.5898L46.7432 59.7539C46.7511 59.895 46.8687 60.0047 47.0078 60.0049C47.1491 60.0049 47.2645 59.8951 47.2725 59.7539L48.0244 46.5898C48.3489 40.8958 52.8953 36.3505 58.5908 36.0225L71.1299 35.2969H71.75C71.8911 35.2969 72.0047 35.184 72.0049 35.043C72.0049 34.9018 71.8912 34.7881 71.75 34.7881H71.1299L58.5908 34.0625C52.8952 33.7325 48.3487 29.1874 48.0244 23.4951L47.2686 10.251C47.2604 10.114 47.1469 10.0049 47.0078 10.0049ZM10.9238 0C10.6886 0 10.498 0.190584 10.498 0.425781V0.506836C10.498 6.07011 5.98904 10.58 0.425781 10.5801C0.190582 10.5801 0 10.7697 0 11.0049C3.05176e-05 11.2401 0.190605 11.4297 0.425781 11.4297C5.98904 11.4298 10.498 15.9397 10.498 21.5029V21.584C10.498 21.8192 10.6886 22.0098 10.9238 22.0098H11.082C11.3172 22.0097 11.5068 21.8191 11.5068 21.584V21.5029C11.5068 15.9396 16.0168 11.4297 21.5801 11.4297C21.8151 11.4296 22.0049 11.24 22.0049 11.0049C22.0049 10.7698 21.8152 10.5802 21.5801 10.5801C16.0168 10.5801 11.5068 6.07016 11.5068 0.506836V0.425781C11.5068 0.190629 11.3172 7.2917e-05 11.082 0H10.9238Z" fill="#FBCFB9"/>
</g>
</svg>
