<svg preserveAspectRatio="none" width="100%" height="100%" overflow="visible" style="display: block;" viewBox="0 0 39.0052 39.0078" fill="none" xmlns="http://www.w3.org/2000/svg">
<path id="star" d="M19.5071 0C19.6158 4.86189e-05 19.7044 0.0827752 19.7102 0.191406L20.2971 10.5234C20.4037 12.395 21.0972 14.1068 22.1946 15.4814C22.7416 15.2248 23.2611 14.8882 23.7327 14.4678L29.3626 9.44531C29.4213 9.39247 29.5099 9.39543 29.5657 9.45117C29.6215 9.50691 29.6243 9.59458 29.5716 9.65332L24.5471 15.2812C24.1245 15.7548 23.7849 16.2756 23.5276 16.8252C24.9111 17.9475 26.6436 18.6575 28.5403 18.7666L38.3225 19.334H38.8079L38.805 19.3311C38.9165 19.3311 39.0051 19.4217 39.0052 19.5303C39.0052 19.6418 38.9137 19.7304 38.805 19.7305H38.3196L28.5374 20.2969C26.6424 20.4058 24.9115 21.1149 23.5286 22.2354C23.7852 22.7829 24.1235 23.3024 24.5442 23.7744L29.2923 29.1045L29.5423 29.3545L29.5481 29.3574C29.6038 29.4161 29.6039 29.5067 29.5481 29.5625C29.4923 29.6183 29.3979 29.6183 29.3421 29.5625L29.093 29.3135L23.7591 24.5674C23.2858 24.1461 22.7652 23.8074 22.2161 23.5508C21.1042 24.9308 20.4015 26.6552 20.2942 28.541L19.7102 38.8105C19.7044 38.9221 19.6129 39.0078 19.5042 39.0078C19.3954 39.0078 19.304 38.9192 19.2981 38.8105L18.7132 28.541C18.6059 26.6573 17.905 24.9349 16.7952 23.5557C16.2491 23.8122 15.7319 24.1506 15.261 24.5703L9.66238 29.5596C9.60072 29.6124 9.5102 29.6094 9.45437 29.5537C9.39854 29.495 9.39562 29.4044 9.44851 29.3457L14.4407 23.751C14.8608 23.2802 15.1977 22.7617 15.4544 22.2158C14.0756 21.107 12.3545 20.4052 10.471 20.2969L0.687768 19.7305H0.200464C0.0858576 19.7305 -0.00560902 19.636 0.00026821 19.5215C0.00619343 19.4158 0.100563 19.334 0.206323 19.334H0.687768L10.471 18.7666C12.3637 18.6577 14.0918 17.9493 15.4739 16.8311C15.2155 16.2708 14.8731 15.7387 14.4436 15.2568L9.6946 9.92676L9.44265 9.6748C9.38388 9.619 9.3868 9.52162 9.44851 9.46582C9.50724 9.41616 9.5949 9.419 9.65066 9.47461L9.90066 9.72461L15.2346 14.4707C15.715 14.8983 16.2448 15.2392 16.803 15.4971C17.9078 14.1197 18.6062 12.4023 18.7132 10.5234L19.304 0.191406C19.3099 0.0856799 19.3984 0 19.5071 0Z" fill="var(--fill-0, #FBCFB9)"/>
</svg>
