<svg width="72" height="60" viewBox="0 0 72 60" fill="none" xmlns="http://www.w3.org/2000/svg">

<g id="top_opening_PC">

<path id="Union" d="M24.9971 10.0049C25.1362 10.0049 25.2496 10.112 25.2578 10.251L26.0137 23.4951C26.338 29.1894 30.8844 33.7344 36.5801 34.0625L49.1191 34.7881H49.7373C49.8744 34.7881 49.9918 34.8933 50 35.0303C50.006 35.1772 49.8911 35.2966 49.7461 35.2969H49.1191L36.5801 36.0225C30.8846 36.3525 26.3382 40.8977 26.0137 46.5898L25.2617 59.7539C25.2538 59.8951 25.1363 60.0049 24.9971 60.0049C24.856 60.0047 24.7404 59.895 24.7324 59.7539L23.9805 46.5898C23.656 40.8958 19.1106 36.3505 13.415 36.0225L0.875977 35.2969H0.254883C0.113854 35.2967 0.000164927 35.1839 0 35.043C0 34.9019 0.113751 34.7882 0.254883 34.7881H0.875977L13.415 34.0625C19.1107 33.7325 23.6561 29.1874 23.9805 23.4951L24.7363 10.251C24.7445 10.1141 24.8581 10.0051 24.9971 10.0049ZM61.0771 0C61.3123 0 61.5029 0.190584 61.5029 0.425781V0.506836C61.5029 6.07011 66.0119 10.58 71.5752 10.5801C71.8104 10.5801 72.001 10.7697 72.001 11.0049C72.0009 11.2401 71.8104 11.4297 71.5752 11.4297C66.0119 11.4298 61.5029 15.9397 61.5029 21.5029V21.584C61.5029 21.8192 61.3123 22.0098 61.0771 22.0098H60.9189C60.6838 22.0097 60.4941 21.8191 60.4941 21.584V21.5029C60.4941 15.9396 55.9842 11.4297 50.4209 11.4297C50.1858 11.4296 49.9961 11.24 49.9961 11.0049C49.9961 10.7698 50.1858 10.5802 50.4209 10.5801C55.9842 10.5801 60.4941 6.07016 60.4941 0.506836V0.425781C60.4941 0.190629 60.6838 7.2852e-05 60.9189 0H61.0771Z" fill="#FBCFB9"/>
</g>
</svg>
