<svg width="55" height="51" viewBox="0 0 55 51" fill="none" xmlns="http://www.w3.org/2000/svg">

<g id="top_opening_PC">

<path id="Union" d="M18.2773 14C18.3792 14 18.462 14.0789 18.4678 14.1807L19.0205 23.8643C19.2578 28.0276 22.5817 31.3509 26.7461 31.5908L35.915 32.1211H36.3672C36.4675 32.1211 36.5538 32.1986 36.5596 32.2988C36.5638 32.4062 36.4791 32.4931 36.373 32.4932H35.915L26.7461 33.0244C22.5816 33.2658 19.2576 36.5889 19.0205 40.751L18.4707 50.376C18.4649 50.4792 18.3792 50.5596 18.2773 50.5596C18.1741 50.5596 18.0898 50.4792 18.084 50.376L17.5342 40.751C17.2971 36.5874 13.9731 33.2643 9.80859 33.0244L0.639648 32.4932H0.186523C0.0833659 32.4932 0.000194819 32.4107 0 32.3076C0 32.2044 0.0832443 32.1211 0.186523 32.1211H0.639648L9.80859 31.5908C13.973 31.3495 17.2969 28.0262 17.5342 23.8643L18.0869 14.1807C18.0927 14.0804 18.1755 14 18.2773 14ZM46.6582 0C46.8301 0 46.9696 0.138725 46.9697 0.310547V0.370117C46.9697 4.43794 50.2671 7.73535 54.335 7.73535C54.5066 7.73561 54.6453 7.87429 54.6455 8.0459C54.6455 8.21771 54.5067 8.35716 54.335 8.35742C50.2671 8.35742 46.9697 11.6548 46.9697 15.7227V15.7822C46.9695 15.954 46.83 16.0928 46.6582 16.0928H46.543C46.3711 16.0928 46.2317 15.954 46.2314 15.7822V15.7227C46.2314 11.655 42.9348 8.35761 38.8672 8.35742C38.6952 8.35742 38.5557 8.21787 38.5557 8.0459C38.5559 7.87413 38.6954 7.73535 38.8672 7.73535C42.9348 7.73517 46.2314 4.43782 46.2314 0.370117V0.310547C46.2316 0.138725 46.3711 0 46.543 0H46.6582Z" fill="#FBCFB9"/>
</g>
</svg>
