<svg preserveAspectRatio="none" width="100%" height="100%" overflow="visible" style="display: block;" viewBox="0 0 28.5188 28.5215" fill="none" xmlns="http://www.w3.org/2000/svg">
<path id="star" d="M14.2629 0C14.3423 5.26675e-05 14.4069 0.060318 14.4113 0.139648L14.841 7.69434C14.9189 9.06268 15.4255 10.3142 16.2277 11.3193C16.6278 11.1317 17.0079 10.8856 17.3527 10.5781L21.4689 6.90625C21.5118 6.8677 21.5765 6.86965 21.6174 6.91016C21.6581 6.95089 21.6607 7.01565 21.6223 7.05859L17.9475 11.1729C17.6385 11.519 17.3904 11.9 17.2023 12.3018C18.2139 13.1225 19.4805 13.6418 20.8674 13.7217L28.0207 14.1367H28.3752L28.3732 14.1348C28.4548 14.1348 28.5187 14.2009 28.5188 14.2803C28.5188 14.3618 28.4527 14.4267 28.3732 14.4268H28.0188L20.8654 14.8408C19.48 14.9205 18.2144 15.4387 17.2033 16.2578C17.3909 16.6581 17.638 17.0377 17.9455 17.3828L21.4182 21.2812L21.6008 21.4629L21.6047 21.4658C21.6454 21.5088 21.6455 21.5755 21.6047 21.6162C21.5639 21.6567 21.4951 21.6567 21.4543 21.6162L21.2717 21.4336L17.3723 17.9629C17.0263 17.6549 16.6448 17.4083 16.2434 17.2207C15.4307 18.2295 14.9176 19.4897 14.8391 20.8682L14.4113 28.3779C14.407 28.4594 14.3403 28.5213 14.2609 28.5215C14.1815 28.5215 14.1149 28.4573 14.1105 28.3779L13.6828 20.8682C13.6044 19.4911 13.0907 18.2329 12.2795 17.2246C11.8805 17.4121 11.5015 17.6581 11.1574 17.9648L7.06465 21.6133C7.01957 21.6519 6.95314 21.6501 6.91231 21.6094C6.87158 21.5665 6.86903 21.5 6.90742 21.457L10.5588 17.3662C10.8661 17.0218 11.1123 16.6426 11.3 16.2432C10.2919 15.4324 9.03273 14.92 7.65547 14.8408L0.503127 14.4268H0.145705C0.0620555 14.4266 -0.0040943 14.3571 0.000197652 14.2734C0.00473722 14.1963 0.0733869 14.1367 0.150588 14.1367H0.503127L7.65547 13.7217C9.0394 13.6421 10.3031 13.1242 11.3137 12.3066C11.1248 11.8971 10.8747 11.5085 10.5607 11.1562L7.08809 7.25879L6.90352 7.07324C6.86082 7.03242 6.86244 6.96163 6.90742 6.9209C6.95036 6.88442 7.01503 6.88703 7.05586 6.92773L7.23848 7.11035L11.1389 10.5801C11.4901 10.8928 11.8772 11.1424 12.2854 11.3311C13.0933 10.3239 13.6046 9.06823 13.6828 7.69434L14.1145 0.139648C14.1188 0.06243 14.1835 0 14.2629 0Z" fill="var(--fill-0, #FBCFB9)"/>
</svg>
